<svg width="624" height="624" xmlns="http://www.w3.org/2000/svg" xmlns:xlink="http://www.w3.org/1999/xlink" overflow="hidden"><defs><clipPath id="clip0"><rect x="0" y="0" width="624" height="624"/></clipPath></defs><g clip-path="url(#clip0)"><path d="M470.352 486.583C469.754 465.945 446.861 450.665 427.278 453.129L407.29 382.265 393.422 382.337C393.422 382.337 400.327 463.533 400.92 464.88 403.4 470.512 410.903 484.814 423.155 484.814L455.26 487.637 470.367 487.637C470.367 487.284 470.362 486.933 470.352 486.583Z" fill="#737373"/><path d="M316.672 464.314C317.588 476.517 327.773 486.135 340.21 486.135L372.645 487.637 386.517 487.637C386.517 487.284 386.512 486.933 386.502 486.583 385.898 465.744 366.896 451.051 347.19 453.89L326.717 453.89 316.672 464.314Z" fill="#737373"/><path d="M361.639 265.165 355.742 270.734C332.134 291.355 313.627 314.913 298.944 340.691 297.758 342.774 296.598 344.871 295.461 346.982 287.821 361.171 281.278 375.997 275.631 391.346 292.716 388.743 301.482 371.574 302.25 353.729 306.737 354.882 312.483 355.289 317.33 355.289 348.382 355.289 374.876 327.235 374.876 296.183 374.876 285.801 372.45 268.104 361.639 265.165Z" fill="#505050"/><path d="M304.33 447.85C304.33 428.747 291.156 407.984 270.525 406.082 265.363 421.94 261.059 438.301 257.388 455.039L241.802 455.039C221.673 455.039 201.798 450.533 183.638 441.85L157.79 429.493C154.359 427.853 151.25 432.248 153.939 434.937L161.977 442.974C185.889 466.887 218.072 480.885 251.741 482.339L285.795 482.437C296.704 477.316 304.33 458.979 304.33 447.85Z" fill="#505050"/><path d="M406.775 137.542C405.31 137.366 403.82 137.287 402.311 137.287L397.318 137.287C385.62 137.287 375.179 144.626 371.217 155.632L371.217 155.632C369.687 159.884 367.294 163.647 364.279 166.754 358.538 172.674 350.538 176.214 341.932 176.214L330.818 176.214 329.995 176.214C326.69 176.67 319.8 178.62 317.915 181.61 315.881 184.836 314.6 188.37 316.57 193.752 320.804 200.496 326.63 205.979 333.422 209.799 333.129 210.18 332.971 210.579 332.971 210.99 332.971 213.682 339.664 215.865 347.921 215.865L356.578 215.865C366.669 215.868 374.007 223.973 373.921 234.065L373.921 253.245C388.699 248.375 399.885 233.543 401.179 216.711 401.569 211.641 401.361 201.139 398.319 194.741 403.566 192.932 407.165 191.168 411.579 187.981 423.521 179.359 421.342 164.315 423.669 149.111 417.857 144.09 408.11 137.702 406.775 137.542Z" fill="#737373"/><path d="M408.59 285.09C408.59 296.309 415.22 316.16 428.106 312.79L441.522 253.637 441.522 252.318C423.28 248.3 408.59 268.647 408.59 285.09Z" fill="#737373"/><path d="M395.894 389.436C395.894 395.119 401.18 401.266 409.89 401.223 410.607 401.22 412.144 400.443 412.853 399.717L412.975 379.485C412.273 378.863 411.039 378.043 410.28 378.039 401.744 377.996 395.894 383.754 395.894 389.436Z" fill="#505050"/><path d="M455.273 484.48C453.81 468.707 441.802 456.835 427.286 454.128 422.659 452.996 417.767 452.685 412.853 453.386L412.853 399.784C412.853 399.784 412.853 399.74 412.854 399.676L412.853 399.717C412.171 399.822 411.473 399.887 410.756 399.887 404.176 399.887 398.843 395.279 398.843 389.596 398.843 383.913 404.178 379.306 410.758 379.306 411.517 379.306 412.256 379.374 412.976 379.491L428.106 312.856C419.693 306.708 414.222 296.772 414.222 285.553 414.222 269.11 425.966 255.415 441.522 252.384L441.522 233.09 436.974 227.716 437.97 176.54C437.97 164.72 431.991 156.305 423.649 149.101 421.326 164.277 417.155 175.251 405.249 183.874 400.817 187.084 395.897 189.664 390.623 191.482 393.665 197.88 395.372 205.036 395.372 212.592 395.372 229.473 386.872 244.366 373.922 253.236L373.922 253.631 361.639 265.232C366.506 273.51 369.325 283.136 369.372 293.422 369.51 324.238 344.405 349.665 313.59 349.902 308.587 349.94 303.733 349.325 299.11 348.137 298.342 365.981 289.255 381.659 275.632 391.413 273.844 396.274 272.142 401.186 270.527 406.149 285.087 416.309 294.622 433.176 294.622 452.278 294.622 463.408 291.375 473.773 285.796 482.503L311.545 482.336C315.607 485.647 320.789 487.637 326.439 487.637L372.622 487.637C372.622 487.284 372.616 486.933 372.607 486.582 372.082 468.467 357.653 455.003 340.945 453.655 340.938 453.654 340.937 453.645 340.945 453.643 360.843 449.738 375.983 432.581 376.802 411.739 379.855 414.49 381.891 418.192 382.26 422.752L385.884 467.454C387.546 478.867 397.361 487.637 409.235 487.637L455.417 487.637C455.417 486.617 455.374 485.566 455.273 484.48Z" fill="#D2D2D2"/><path d="M331.719 454.256C331.724 453.905 332.009 453.626 332.361 453.621 356.394 453.286 376.225 433.91 376.253 409.804 376.267 397.961 371.657 386.898 363.261 378.585 363.009 378.335 363 377.932 363.246 377.676L363.246 377.676C363.498 377.415 363.919 377.407 364.177 377.662 372.822 386.222 377.568 397.612 377.553 409.805 377.523 434.619 357.116 454.565 332.379 454.92 332.013 454.926 331.714 454.623 331.719 454.256L331.719 454.256Z" fill="#E6E6E6"/><path d="M339.613 462.107C339.245 462.091 338.938 462.393 338.938 462.761 338.938 463.11 339.215 463.391 339.565 463.406 352.516 463.963 362.897 474.589 363.059 487.637L364.359 487.637C364.197 473.888 353.259 462.69 339.613 462.107Z" fill="#737373"/><path d="M339.63 469.089C339.256 469.062 338.939 469.368 338.939 469.742 338.939 470.085 339.206 470.36 339.548 470.385 348.542 471.056 355.672 478.51 355.831 487.636L357.131 487.636C356.972 477.821 349.303 469.803 339.63 469.089Z" fill="#737373"/><path d="M421.147 462.107C420.779 462.091 420.472 462.393 420.472 462.761 420.472 463.11 420.75 463.391 421.099 463.406 434.05 463.963 444.431 474.589 444.593 487.637L445.893 487.637C445.73 473.888 434.793 462.69 421.147 462.107Z" fill="#737373"/><path d="M421.163 469.089C420.789 469.062 420.472 469.368 420.472 469.742 420.472 470.085 420.739 470.36 421.081 470.385 430.076 471.056 437.206 478.51 437.365 487.636L438.665 487.636C438.506 477.821 430.836 469.803 421.163 469.089Z" fill="#737373"/><path d="M406.2 275.087C410.385 275.087 413.779 271.159 413.779 266.312 413.779 261.466 410.386 257.537 406.2 257.537 402.015 257.537 398.622 261.466 398.622 266.312 398.622 271.159 402.015 275.087 406.2 275.087Z" fill="#505050"/><path d="M377.7 306.138C375.506 308.311 375.235 311.595 377.094 313.472 378.953 315.349 382.238 315.11 384.431 312.936 386.625 310.763 386.896 307.479 385.037 305.601 383.178 303.724 379.893 303.964 377.7 306.138Z" fill="#505050"/><path d="M405.402 309.948C407.487 308.326 407.64 305.035 405.742 302.599 403.846 300.162 400.617 299.502 398.532 301.125 396.447 302.747 396.295 306.037 398.191 308.474 400.089 310.91 403.317 311.57 405.402 309.948Z" fill="#505050"/><path d="M404.369 325.033C401.409 327.993 401.787 333.171 405.214 336.597 408.641 340.024 413.817 340.403 416.777 337.444 419.737 334.483 419.359 329.306 415.932 325.879 412.506 322.453 407.328 322.074 404.369 325.033Z" fill="#505050"/><path d="M373.638 240.576 441.628 240.576 441.628 253.637 373.638 253.637Z" fill="#FFC000"/><path d="M346.534 196.971C346.534 198.383 345.39 199.527 343.978 199.527 342.566 199.527 341.422 198.383 341.422 196.971 341.422 195.559 342.566 194.414 343.978 194.414 345.39 194.414 346.534 195.559 346.534 196.971Z" fill="#2F2F2F"/><path d="M342.722 188.681C342.722 190.093 341.577 191.237 340.165 191.237 338.753 191.237 337.609 190.093 337.609 188.681 337.609 187.269 338.753 186.124 340.165 186.124 341.577 186.124 342.722 187.269 342.722 188.681Z" fill="#2F2F2F"/><path d="M336.222 196.971C336.222 198.383 335.077 199.527 333.665 199.527 332.253 199.527 331.109 198.383 331.109 196.971 331.109 195.559 332.253 194.414 333.665 194.414 335.077 194.414 336.222 195.559 336.222 196.971Z" fill="#2F2F2F"/><path d="M313.375 187.745C310.973 182.318 314.946 176.214 320.881 176.214L329.995 176.214C330.238 177.259 330.371 178.346 330.371 179.464 330.371 187.195 324.236 193.488 316.57 193.752 315.375 191.847 314.303 189.842 313.375 187.745L313.375 187.745Z" fill="#2F2F2F"/><path d="M386.272 173.452C386.272 178.119 382.488 181.902 377.822 181.902 373.155 181.902 369.372 178.119 369.372 173.452 369.372 168.785 373.155 165.002 377.822 165.002 382.488 165.002 386.272 168.785 386.272 173.452Z" fill="#FFFFFF"/><path d="M369.372 173.452C369.372 173.924 369.42 174.384 369.494 174.834 370.637 175.697 372.055 176.214 373.597 176.214 377.366 176.214 380.422 173.159 380.422 169.389 380.422 167.753 379.844 166.252 378.884 165.076 378.535 165.032 378.182 165.002 377.822 165.002 373.155 165.002 369.372 168.785 369.372 173.452Z" fill="#2F2F2F"/><path d="M404.036 165.199C404.036 155.49 405.03 145.916 406.707 137.53 426.307 139.587 441.522 156.497 441.522 176.642L441.522 233.48C439.794 234.097 438.02 234.424 436.211 234.424 418.441 234.424 404.036 203.431 404.036 165.199Z" fill="#2F2F2F"/><path d="M334.894 209.396C339.301 209.807 343.772 209.89 348.195 209.728 352.62 209.553 357.03 209.102 361.314 208.218 363.451 207.765 365.564 207.228 367.6 206.523 369.631 205.811 371.593 204.96 373.418 203.928 377.07 201.87 380.029 198.915 381.577 195.338L381.581 195.328C382.09 194.153 383.453 193.614 384.627 194.121 385.802 194.629 386.341 195.993 385.833 197.167 385.813 197.214 385.789 197.265 385.766 197.309 384.604 199.562 383.024 201.57 381.196 203.225 379.364 204.877 377.318 206.227 375.171 207.251 370.878 209.323 366.331 210.423 361.804 211.06 357.269 211.69 352.723 211.853 348.206 211.738 343.686 211.607 339.202 211.234 334.733 210.521 334.423 210.471 334.212 210.18 334.261 209.87 334.309 209.573 334.578 209.367 334.873 209.394L334.894 209.396Z" fill="#2F2F2F"/></g></svg>