<svg width="624" height="624" xmlns="http://www.w3.org/2000/svg" xmlns:xlink="http://www.w3.org/1999/xlink" overflow="hidden"><defs><clipPath id="clip0"><rect x="0" y="0" width="624" height="624"/></clipPath></defs><g clip-path="url(#clip0)"><path d="M208.14 400.651 207.722 400.648 207.722 400.648C207.722 400.648 207.722 400.648 207.722 400.648 206.986 400.648 206.259 400.684 205.536 400.737 191.127 401.803 179.627 413.302 178.561 427.712 178.508 428.434 178.472 429.162 178.472 429.898L178.472 429.898 178.472 429.898C178.472 429.898 178.473 430.102 178.474 430.225 178.474 430.278 178.474 430.318 178.474 430.318 178.697 446.137 191.48 458.919 207.299 459.143 207.299 459.143 207.722 459.147 207.722 459.147 208.458 459.147 209.185 459.111 209.907 459.057 224.317 457.992 235.817 446.493 236.882 432.082 236.935 431.36 236.972 430.633 236.972 429.898 236.972 429.898 236.972 429.898 236.972 429.898 236.972 413.883 224.1 400.875 208.14 400.651Z" fill="#FFC000"/><path d="M236.969 429.476 236.669 429.488C236.469 429.495 236.269 429.502 236.067 429.502 220.655 429.502 208.117 416.963 208.117 401.552 208.117 401.348 208.124 401.145 208.131 400.942L208.14 400.649 207.722 400.646C206.986 400.646 206.259 400.683 205.536 400.736L205.533 400.852C205.525 401.084 205.518 401.317 205.518 401.551 205.518 418.397 219.222 432.101 236.068 432.101 236.3 432.101 236.53 432.093 236.76 432.086L236.882 432.082C236.935 431.359 236.972 430.633 236.972 429.897L236.969 429.476Z" fill="#FFFFFF"/><path d="M209.927 458.242C209.927 441.397 196.222 427.692 179.377 427.692 179.145 427.692 178.561 427.712 178.561 427.712 178.508 428.434 178.472 429.161 178.472 429.897 178.472 429.897 178.474 430.316 178.474 430.316 178.474 430.316 179.174 430.292 179.377 430.292 194.788 430.292 207.327 442.831 207.327 458.242 207.327 458.446 207.3 459.149 207.3 459.149 207.3 459.149 207.722 459.148 207.722 459.148 208.458 459.148 209.185 459.111 209.907 459.058 209.907 459.057 209.927 458.477 209.927 458.242Z" fill="#FFFFFF"/><path d="M176.583 244.325 176.165 244.321 176.165 244.321C176.165 244.321 176.165 244.321 176.165 244.321 175.429 244.321 174.702 244.358 173.98 244.411 159.57 245.476 148.07 256.976 147.005 271.386 146.951 272.108 146.915 272.836 146.915 273.571L146.915 273.571 146.915 273.571C146.915 273.571 146.916 273.775 146.917 273.898 146.917 273.952 146.918 273.991 146.918 273.991 147.14 289.811 159.923 302.593 175.742 302.817 175.742 302.817 176.165 302.821 176.165 302.821 176.901 302.821 177.628 302.785 178.35 302.732 192.76 301.666 204.26 290.167 205.325 275.757 205.379 275.034 205.415 274.308 205.415 273.572 205.415 273.572 205.415 273.572 205.415 273.572 205.415 257.557 192.544 244.549 176.583 244.325Z" fill="#E4E4E4"/><path d="M205.412 273.151 205.112 273.162C204.912 273.17 204.712 273.176 204.51 273.176 189.099 273.176 176.56 260.638 176.56 245.226 176.56 245.022 176.567 244.819 176.574 244.616L176.583 244.323 176.165 244.321C175.429 244.321 174.702 244.357 173.98 244.41L173.976 244.527C173.968 244.759 173.961 244.992 173.961 245.225 173.961 262.071 187.665 275.775 204.511 275.775 204.743 275.775 204.973 275.768 205.203 275.76L205.325 275.756C205.379 275.034 205.415 274.307 205.415 273.571L205.412 273.151Z" fill="#FFFFFF"/><path d="M178.37 301.917C178.37 285.071 164.665 271.367 147.82 271.367 147.588 271.367 147.005 271.386 147.005 271.386 146.951 272.108 146.915 272.836 146.915 273.571 146.915 273.571 146.918 273.991 146.918 273.991 146.918 273.991 147.618 273.967 147.82 273.967 163.231 273.967 175.77 286.505 175.77 301.917 175.77 302.121 175.743 302.823 175.743 302.823 175.743 302.823 176.165 302.822 176.165 302.822 176.901 302.822 177.628 302.786 178.35 302.732 178.35 302.732 178.37 302.151 178.37 301.917Z" fill="#FFFFFF"/><path d="M253.512 346.789 253.515 346.371 253.515 346.371C253.515 346.371 253.515 346.371 253.515 346.371 253.515 345.636 253.479 344.908 253.425 344.186 252.36 329.776 240.861 318.276 226.45 317.211 225.728 317.158 225.001 317.121 224.265 317.121L224.265 317.121 224.265 317.121C224.265 317.121 224.061 317.123 223.938 317.123 223.885 317.124 223.846 317.124 223.846 317.124 208.026 317.347 195.244 330.13 195.019 345.949 195.019 345.949 195.016 346.371 195.016 346.371 195.016 347.107 195.052 347.835 195.105 348.557 196.171 362.966 207.67 374.466 222.08 375.532 222.802 375.585 223.529 375.621 224.265 375.621 224.265 375.621 224.265 375.621 224.265 375.621 240.28 375.622 253.287 362.75 253.512 346.789Z" fill="#D1D1D1"/><path d="M224.686 375.619 224.674 375.319C224.667 375.119 224.661 374.919 224.661 374.717 224.661 359.306 237.199 346.767 252.611 346.767 252.815 346.767 253.018 346.774 253.22 346.781L253.514 346.79 253.516 346.372C253.516 345.636 253.48 344.909 253.427 344.187L253.31 344.183C253.078 344.175 252.845 344.168 252.611 344.168 235.766 344.168 222.061 357.872 222.061 374.718 222.061 374.95 222.069 375.18 222.077 375.41L222.081 375.532C222.803 375.586 223.53 375.622 224.266 375.622L224.686 375.619Z" fill="#FFFFFF"/><path d="M195.92 348.576C212.766 348.576 226.47 334.872 226.47 318.026 226.47 317.794 226.451 317.211 226.451 317.211 225.729 317.158 225.001 317.121 224.266 317.121 224.266 317.121 223.846 317.124 223.846 317.124 223.846 317.124 223.87 317.824 223.87 318.026 223.87 333.438 211.332 345.976 195.92 345.976 195.716 345.976 195.014 345.949 195.014 345.949 195.014 345.949 195.015 346.371 195.015 346.371 195.015 347.107 195.051 347.835 195.105 348.557 195.105 348.557 195.686 348.576 195.92 348.576Z" fill="#FFFFFF"/><path d="M300.817 396.978 300.455 429.296C296.383 427.452 291.866 426.416 287.104 426.416 269.207 426.416 254.698 440.924 254.698 458.821L291.677 458.821C321.617 458.821 330.757 431.434 330.757 431.434L330.757 393.047 300.817 396.978Z" fill="#FFC000"/><path d="M264.35 458.822C264.491 446.275 274.737 436.111 287.316 436.111 287.675 436.111 287.966 435.82 287.966 435.461 287.966 435.102 287.675 434.811 287.316 434.811 274.02 434.811 263.191 445.559 263.05 458.822L264.35 458.822Z" fill="#FFFFFF"/><path d="M476.161 420.611C475.721 419.336 475.126 418.104 474.365 416.939 468.473 407.926 455.049 406.274 444.382 413.249 444.263 413.327 444.149 413.41 444.031 413.49 441.968 396.745 437.114 372.484 421.215 347.832 405.274 323.115 376.106 313.449 358.165 295.182 341.929 278.65 333.465 234.082 333.465 234.082 333.465 234.082 350.365 171.032 323.158 157.229 316.118 153.658 305.115 204.908 304.958 205.655 304.871 205.703 302.888 206.779 302.005 208.198 301.69 208.705 301.328 209.288 300.925 209.934 299.253 184.134 295.302 161.178 290.692 161.178 285.609 161.178 282.474 206.514 281.585 221.319 281.509 222.586 281.377 228.975 281.252 235.75 275.823 241.111 269.811 245.466 263.693 246.898 269.881 253.614 270.804 264.435 270.804 274.288 270.804 275.167 271.988 276.866 273.318 276.779 303.981 277.333 325.989 300.757 325.989 331.553 325.989 348.187 318.661 361.077 307.204 371.398 308.132 374.603 308.374 379.788 308.374 383.293 308.374 390.768 304.734 395.643 305.449 402.401 322.028 417.019 345.935 430.529 370.545 431.59 370.928 431.606 371.619 431.653 371.619 431.653 363.672 437.555 359.147 446.787 358.829 457.768 358.818 458.119 358.814 458.47 358.814 458.823L404.996 458.823C412.49 458.823 419.162 455.328 423.486 449.883 423.486 449.883 447.982 449.914 448.817 450.022 448.817 450.022 448.818 450.022 448.818 450.021 449.337 449.831 449.673 449.701 450.291 449.398 457.065 447.08 463.515 442.824 467.797 436.593 470.007 433.378 471.611 431.047 475.754 422.005 475.975 421.73 476.285 420.967 476.161 420.611Z" fill="#FFC000"/><path d="M328.915 330.286C328.915 299.491 304.228 274.466 273.565 273.912 273.568 273.861 273.558 273.739 273.535 273.554 271.6 258.165 277.406 242.946 288.808 232.43 296.507 225.328 302.204 216.091 304.96 205.655 304.479 205.637 298.52 205.615 298.52 205.615 286.822 205.615 276.381 212.954 272.419 223.96L272.419 223.96C269.779 231.293 264.576 237.175 258.036 240.744 253.564 243.184 248.465 244.542 243.134 244.542L233.72 244.542 231.197 244.542C229.465 245.362 224.871 247.528 222.921 249.392 220.799 251.42 218.415 256.066 217.771 262.08 222.006 268.824 227.832 274.307 234.624 278.127 234.33 278.508 234.173 278.907 234.173 279.318 234.173 281.053 236.954 282.574 241.139 283.439 243.45 283.916 246.186 284.193 249.123 284.193L257.774 284.193C262.378 284.193 266.405 285.883 269.42 288.674 273.016 292.003 275.17 296.902 275.123 302.393L275.123 326.1C275.123 332.84 275.807 339.5 276.962 346.088 278.608 355.474 281.22 364.714 284.248 373.827 285.335 377.101 287.065 380.573 289.346 384.123 293.26 390.215 298.804 396.535 305.546 402.479 309.425 396.709 311.69 389.763 311.69 382.288 311.69 378.783 311.182 375.398 310.254 372.193 321.711 361.871 328.915 346.921 328.915 330.286Z" fill="#E6E6E6"/><path d="M312.101 218.98C312.1 218.984 312.099 218.982 312.102 218.982 312.246 219.016 321.723 221.15 326.711 206.48 330.65 194.899 327.46 176.801 321.207 173.674 319.484 172.813 312.152 218.657 312.101 218.98Z" fill="#FFFFFF"/><path d="M247.736 265.299C247.736 266.711 246.592 267.855 245.18 267.855 243.768 267.855 242.624 266.711 242.624 265.299 242.624 263.887 243.768 262.742 245.18 262.742 246.592 262.742 247.736 263.887 247.736 265.299Z" fill="#737373"/><path d="M244.573 254.336C244.573 255.748 243.428 256.892 242.016 256.892 240.605 256.892 239.46 255.748 239.46 254.336 239.46 252.924 240.605 251.779 242.016 251.779 243.428 251.779 244.573 252.924 244.573 254.336Z" fill="#505050"/><path d="M237.423 265.299C237.423 266.711 236.278 267.855 234.866 267.855 233.455 267.855 232.31 266.711 232.31 265.299 232.31 263.887 233.455 262.742 234.866 262.742 236.278 262.742 237.423 263.887 237.423 265.299Z" fill="#737373"/><path d="M214.577 256.073C212.175 250.646 216.148 244.542 222.083 244.542L231.197 244.542C231.44 245.587 231.573 246.674 231.573 247.792 231.573 255.523 225.438 261.816 217.772 262.08 216.576 260.175 215.505 258.17 214.577 256.073L214.577 256.073Z" fill="#2F2F2F"/><path d="M235.475 277.904C245.487 279.73 255.681 274.676 261.487 266.567 263.359 263.841 267.41 267.201 265.044 269.531 262.671 272.009 259.915 274.339 256.959 276.082 250.427 279.832 242.432 281.143 235.156 278.994 234.463 278.788 234.771 277.702 235.475 277.904Z" fill="#737373"/><path d="M289.897 240.848C289.627 236.592 286.079 233.13 281.818 232.957 276.99 232.76 273.015 236.616 273.015 241.4 273.015 241.841 273.059 242.271 273.124 242.694 273.99 243.834 275.875 246.337 277.662 247.344 279.385 248.315 283.484 249.148 284.491 249.281 287.822 248.001 290.142 244.682 289.897 240.848Z" fill="#FFFFFF"/><path d="M277.89 240.749C276.035 240.749 274.355 241.492 273.124 242.693 273.748 246.744 277.239 249.849 281.465 249.849 282.533 249.849 283.55 249.643 284.491 249.281 284.632 248.734 284.715 248.164 284.715 247.574 284.715 243.805 281.659 240.749 277.89 240.749Z" fill="#2F2F2F"/><path d="M330.716 397.112 330.356 429.287C330.356 429.291 330.351 429.294 330.347 429.292 326.277 427.45 321.608 426.087 316.85 426.087 298.211 426.087 284.195 440.925 284.195 458.821L321.577 458.821C351.517 458.821 354.034 431.434 354.034 431.434L354.117 415.921 330.822 397.062C330.78 397.028 330.717 397.058 330.716 397.112Z" fill="#FFC000"/><path d="M284.723 458.822C284.9 441.454 299.07 426.743 316.471 426.743 321.017 426.743 325.419 427.693 329.554 429.566 329.754 429.657 329.986 429.64 330.171 429.523 330.357 429.404 330.47 429.201 330.472 428.981L330.834 396.662C330.838 396.304 330.55 396.009 330.192 396.005 330.189 396.005 330.186 396.005 330.184 396.005 329.829 396.005 329.538 396.291 329.534 396.648L329.183 427.977C329.183 427.982 329.179 427.985 329.174 427.983 325.138 426.297 320.869 425.443 316.471 425.443 298.353 425.443 283.6 440.738 283.423 458.822L284.723 458.822Z" fill="#FFFFFF"/><path d="M296.185 458.822C296.326 446.275 306.571 436.111 319.151 436.111 319.51 436.111 319.801 435.82 319.801 435.461 319.801 435.102 319.51 434.811 319.151 434.811 305.855 434.811 295.027 445.559 294.885 458.822L296.185 458.822Z" fill="#FFFFFF"/><path d="M308.903 458.822C309.043 453.285 313.581 448.822 319.151 448.822 319.51 448.822 319.801 448.531 319.801 448.172 319.801 447.812 319.51 447.522 319.151 447.522 312.864 447.522 307.744 452.568 307.603 458.822L308.903 458.822Z" fill="#FFFFFF"/><path d="M459.289 424.733C464.663 421.219 470.707 419.91 476.165 420.613 479.021 429.059 475.098 440 466.195 445.822 460.821 449.336 456.055 450.892 448.794 450.018 446.503 441.632 450.386 430.555 459.289 424.733Z" fill="#E6E6E6"/><path d="M280.739 342.335 284.303 339.562 284.702 340.074 281.139 342.848Z" fill="#FFFFFF"/><path d="M302.739 348.143 304.84 345.053 305.378 345.418 303.276 348.509Z" fill="#FFFFFF"/><path d="M292.085 345.874 293.526 339.192 294.162 339.329 292.72 346.011Z" fill="#D2D2D2"/><path d="M282.609 346.985 283.136 346.605 285.772 350.273 285.245 350.652Z" fill="#D2D2D2"/><path d="M320.272 344.652 320.457 339.902 321.107 339.928 320.921 344.678Z" fill="#FFFFFF"/><path d="M290.142 303.11 290.745 302.869 293.122 308.81 292.518 309.052Z" fill="#D2D2D2"/><path d="M289.302 335.06 289.699 328.723 290.348 328.764 289.951 335.101Z" fill="#FFFFFF"/><path d="M289.002 321.797 292.564 317.834 293.047 318.268 289.485 322.231Z" fill="#FFFFFF"/><path d="M307.178 332.485 307.706 332.107 311.667 337.652 311.138 338.03Z" fill="#D2D2D2"/><path d="M319.142 327.816 319.553 327.313 323.91 330.878 323.498 331.38Z" fill="#FFFFFF"/><path d="M319.743 320.088 324.497 320.088 324.497 320.738 319.743 320.738Z" fill="#FFFFFF"/><path d="M312.829 302.047 313.202 301.514 317.163 304.286 316.79 304.819Z" fill="#FFFFFF"/><path d="M301.751 308.659 306.108 305.886 306.457 306.434 302.1 309.207Z" fill="#FFFFFF"/><path d="M301.22 322.049 301.863 321.951 302.655 327.099 302.013 327.198Z" fill="#FFFFFF"/><path d="M304.612 318.496 310.157 317.306 310.293 317.942 304.749 319.132Z" fill="#D2D2D2"/><path d="M309.567 326.759 310.686 322.311 311.317 322.47 310.197 326.917Z" fill="#FFFFFF"/><path d="M280.071 315.172 280.199 314.534 286.14 315.722 286.013 316.36Z" fill="#FFFFFF"/><path d="M285.098 211.327 285.701 211.086 288.078 217.027 287.474 217.268Z" fill="#D2D2D2"/><path d="M283.554 229.539 287.118 225.579 287.602 226.014 284.037 229.974Z" fill="#FFFFFF"/><path d="M296.445 215.976 300.802 213.202 301.151 213.751 296.794 216.524Z" fill="#FFFFFF"/><path d="M282.865 221.509 282.992 220.871 288.934 222.059 288.806 222.697Z" fill="#FFFFFF"/><path d="M302.005 386.726 303.767 382.036 304.375 382.264 302.612 386.954Z" fill="#FFFFFF"/><path d="M293.312 381.927 293.95 381.805 294.943 386.995 294.305 387.118Z" fill="#FFFFFF"/><path d="M298.878 371.147 298.991 370.507 305.725 371.695 305.612 372.335Z" fill="#FFFFFF"/><path d="M291.466 370.572 295.029 367.798 295.429 368.311 291.865 371.085Z" fill="#D2D2D2"/><path d="M302.005 386.726 303.767 382.036 304.375 382.264 302.612 386.954Z" fill="#FFFFFF"/><path d="M293.312 381.927 293.95 381.805 294.943 386.995 294.305 387.118Z" fill="#D2D2D2"/><path d="M289.893 355.918 293.063 353.544 293.453 354.064 290.283 356.438Z" fill="#FFFFFF"/><path d="M299.668 357.968 300.207 357.606 303.208 362.079 302.669 362.441Z" fill="#FFFFFF"/><path d="M299.291 288.8 299.929 288.678 300.922 293.869 300.284 293.991Z" fill="#FFFFFF"/><path d="M276.182 295.257 276.363 290.508 277.012 290.533 276.831 295.282Z" fill="#FFFFFF"/><path d="M288.219 295.366 291.388 290.613 291.929 290.973 288.76 295.726Z" fill="#FFFFFF"/><path d="M299.291 288.8 299.929 288.678 300.922 293.869 300.284 293.991Z" fill="#D2D2D2"/><path d="M276.182 295.257 276.363 290.508 277.012 290.533 276.831 295.282Z" fill="#D2D2D2"/><path d="M281.367 303.741 284.303 299.493 284.838 299.862 281.901 304.111Z" fill="#FFFFFF"/><path d="M253.869 245.699 254.472 245.458 256.849 251.399 256.245 251.64Z" fill="#D2D2D2"/><path d="M261.345 255.454 265.702 252.681 266.051 253.229 261.694 256.002Z" fill="#FFFFFF"/><path d="M259.824 244.74 262.76 240.491 263.295 240.861 260.359 245.109Z" fill="#FFFFFF"/><path d="M272.386 282.492 272.413 281.843 277.244 282.044 277.217 282.693Z" fill="#FFFFFF"/><path d="M286.35 281.163 286.699 280.615 291.056 283.388 290.707 283.936Z" fill="#FFFFFF"/><path d="M288.219 295.366 291.388 290.613 291.929 290.973 288.76 295.726Z" fill="#D2D2D2"/><path d="M277.933 333.039 278.046 332.399 284.78 333.587 284.667 334.228Z" fill="#FFFFFF"/><path d="M302.739 348.143 304.84 345.053 305.378 345.418 303.276 348.509Z" fill="#FFFFFF"/><path d="M282.609 346.985 283.136 346.605 285.772 350.273 285.245 350.652Z" fill="#FFFFFF"/><path d="M463.004 438.339 463.117 437.699 469.85 438.887 469.737 439.527Z" fill="#FFFFFF"/><path d="M455.611 437.772 459.177 435.001 459.575 435.514 456.009 438.285Z" fill="#D2D2D2"/><path d="M463.792 425.194 464.331 424.832 467.333 429.306 466.794 429.668Z" fill="#FFFFFF"/><path d="M371.089 458.822C371.23 446.275 381.475 436.111 394.055 436.111 394.415 436.111 394.705 435.82 394.705 435.461 394.705 435.102 394.415 434.811 394.055 434.811 380.759 434.811 369.931 445.559 369.789 458.822L371.089 458.822Z" fill="#FFFFFF"/><path d="M358.924 458.822C359.066 439.568 374.768 423.946 394.055 423.946 394.414 423.946 394.705 423.655 394.705 423.296 394.705 422.936 394.414 422.646 394.055 422.646 374.051 422.646 357.766 438.851 357.624 458.822L358.924 458.822Z" fill="#FFFFFF"/><path d="M383.806 458.822C383.947 453.285 388.484 448.822 394.055 448.822 394.414 448.822 394.705 448.531 394.705 448.172 394.705 447.812 394.414 447.522 394.055 447.522 387.768 447.522 382.647 452.568 382.506 458.822L383.806 458.822Z" fill="#FFFFFF"/><path d="M394.055 423.945C371.381 423.945 352.934 405.499 352.934 382.825L352.934 378.083C352.934 377.723 353.224 377.433 353.584 377.433 353.943 377.433 354.234 377.723 354.234 378.083L354.234 382.825C354.234 404.782 372.097 422.645 394.055 422.645 394.414 422.645 394.705 422.935 394.705 423.295 394.705 423.654 394.414 423.945 394.055 423.945Z" fill="#FFFFFF"/><path d="M326.698 418.011C326.623 418.011 326.548 417.998 326.474 417.971 312.938 413.004 305.108 402.975 305.031 402.873 304.812 402.589 304.865 402.182 305.15 401.963 305.434 401.744 305.841 401.796 306.061 402.081 306.136 402.178 313.752 411.918 326.922 416.751 327.259 416.874 327.432 417.248 327.308 417.585 327.211 417.848 326.963 418.011 326.698 418.011Z" fill="#FFFFFF"/></g></svg>