<svg width="96" height="96" xmlns="http://www.w3.org/2000/svg" xmlns:xlink="http://www.w3.org/1999/xlink" overflow="hidden"><defs><clipPath id="clip0"><rect x="0" y="0" width="96" height="96"/></clipPath></defs><g clip-path="url(#clip0)"><path d="M85.3476 55.0962 82.2776 51.4082C82.9298 46.7744 80.4319 42.2695 76.1561 40.3682L72.4788 39.1357C71.5711 38.839 70.6218 38.6888 69.6668 38.6909L69.1492 38.6958C68.7367 38.6948 68.3247 38.727 67.9173 38.792 67.061 38.9343 66.2249 39.1786 65.4266 39.5195L56.77 42.3052C56.7322 42.3173 56.6952 42.3318 56.6592 42.3486 56.46 42.4399 56.2569 42.522 56.0479 42.5957 53.3636 43.4463 50.4291 42.7319 48.4361 40.7427L40.6934 33.7646C34.2754 28.0401 24.5537 28.145 18.2608 34.0068 18.1145 34.1445 17.9808 34.291 17.8426 34.4348 14.8355 30.484 15.6006 24.8435 19.5514 21.8364 21.1192 20.6431 23.0356 19.9979 25.0058 20 25.5581 20 26.0058 19.5523 26.0058 19 26.0058 18.4477 25.5581 18 25.0058 18 18.9327 17.998 14.0078 22.9196 14.0058 28.9928 14.0049 31.5669 14.9071 34.0598 16.5553 36.0371 14.1734 39.6173 13.9557 44.2179 15.9887 48.0071L17.3324 50.5018C18.2931 52.2847 18.9529 54.214 19.2851 56.2118L19.3559 56.6356C19.4573 57.2347 19.2792 57.8473 18.8725 58.2987L16.0248 61.4779C15.3676 62.2113 15.0044 63.1616 15.0048 64.1464L15.0048 69.0419C15.005 69.1237 15.0151 69.2052 15.0348 69.2846L16.4669 75.0116C16.9098 76.7935 18.5107 78.0438 20.3469 78.0416L25.0007 78.0416C25.5526 78.0416 26.0001 77.5945 26.0007 77.0426L26.0026 74.4439C26.0035 72.7209 24.7159 71.2695 23.0051 71.065L23.0051 64.96C26.944 64.766 30.6984 63.2323 33.6465 60.613L35.5595 63.1392C38.2165 66.7858 42.257 69.1784 46.7319 69.7549 48.1026 69.8147 49.3228 70.6413 49.8866 71.8921L50.8056 74.353C51.3552 75.8132 52.5516 76.9354 54.0439 77.3906L66.602 81.1851C66.6957 81.2137 66.7931 81.2282 66.891 81.228L73.8871 81.228C74.439 81.228 74.8866 80.7809 74.8871 80.229L74.8891 77.6304C74.8904 75.7526 73.3693 74.2293 71.4915 74.228 71.4907 74.228 71.4899 74.228 71.4891 74.228L69.0263 74.228 62.6135 72.4651 65.4916 63.3408 69.9438 58.0781 74.8705 60.1929C78.9214 62.0012 83.6718 60.1908 85.4916 56.145 85.6478 55.7966 85.5919 55.3896 85.3476 55.0962ZM56.7123 44.4819C56.959 44.3952 57.2007 44.2984 57.4374 44.1914L57.569 44.1489 67.0616 58.3879 65.61 60.1045 55.42 44.82C55.8591 44.7418 56.2912 44.6287 56.7123 44.4819ZM63.6449 62.5474 60.394 72.8535C60.3921 72.8596 60.394 72.8655 60.392 72.8716 60.39 72.8777 60.385 72.8826 60.3832 72.8892 60.3729 72.9503 60.3686 73.0123 60.3704 73.0742 60.3599 73.1377 60.3555 73.2021 60.3572 73.2664 60.3693 73.3305 60.3878 73.3932 60.4125 73.4536 60.4269 73.5145 60.447 73.5738 60.4725 73.6309 60.5074 73.6843 60.5473 73.7343 60.5915 73.7803 60.6281 73.8324 60.6697 73.8808 60.7157 73.9248 60.7713 73.9634 60.8306 73.9962 60.8928 74.0227 60.9415 74.0558 60.9931 74.0843 61.0471 74.1079 61.0532 74.1099 61.0592 74.1079 61.0653 74.1099 61.0714 74.1119 61.0762 74.1169 61.0827 74.1187L68.6267 76.1924C68.7131 76.2159 68.8023 76.2279 68.8918 76.228L71.4895 76.228C72.2627 76.228 72.8895 76.8548 72.8895 77.628L72.8885 79.228 67.039 79.228 54.622 75.4766C53.7269 75.2032 53.0095 74.5298 52.68 73.6538L51.77 71.2183C50.9592 69.234 49.0813 67.8912 46.9414 67.7656 43.0163 67.2478 39.4771 65.1382 37.1543 61.9321L35.0905 59.207C35.3247 58.9587 35.5569 58.7063 35.7865 58.4463 37.906 56.1295 38.9446 53.0232 38.6449 49.8975 38.5927 49.3477 38.1047 48.9443 37.5549 48.9964 37.0051 49.0486 36.6017 49.5366 36.6538 50.0864 36.6551 50.1001 36.6567 50.1138 36.6586 50.1275 36.8924 52.6893 36.031 55.2303 34.2875 57.1217 31.3041 60.4986 28.1991 62.6666 21.9457 63.0406 21.8907 63.05 21.8367 63.0643 21.7843 63.0833 21.7181 63.0939 21.6532 63.111 21.5904 63.1346 21.5344 63.1648 21.4814 63.2005 21.4324 63.2411 21.3189 63.3015 21.2284 63.3976 21.1749 63.5145 21.1373 63.5658 21.1048 63.6206 21.078 63.6783 21.0586 63.7415 21.0455 63.8064 21.0389 63.8722 21.0227 63.9266 21.0115 63.9823 21.0053 64.0387L21.0053 72.0421C21.0053 72.5944 21.453 73.0421 22.0053 73.0421L22.6029 73.0421C23.3761 73.0421 24.0029 73.6689 24.0029 74.4421L24.002 76.0421 20.3471 76.0421C19.429 76.0431 18.6285 75.4179 18.4071 74.5269L17.0048 68.919 17.0048 64.147C17.0045 63.6545 17.1861 63.1793 17.5148 62.8125L20.3619 59.6338C21.1752 58.7307 21.5311 57.5054 21.3282 56.3071L21.2574 55.8833C20.8893 53.6685 20.1579 51.5298 19.0929 49.5533L17.7491 47.0587C15.6834 43.2122 16.4551 38.4581 19.6315 35.4625 25.1645 30.3091 33.7117 30.217 39.3544 35.25L47.0756 42.2085C48.71 43.776 50.8323 44.736 53.0887 44.9285L64.2652 61.6934 63.8352 62.2021C63.7497 62.3036 63.685 62.4209 63.6449 62.5474ZM75.6737 58.3613 70.0524 55.9481C69.6483 55.7746 69.1784 55.8855 68.8944 56.2212L68.4058 56.7988 59.5481 43.5122C59.5481 43.5122 66.145 41.3778 66.5142 41.2517 66.5268 41.2474 66.5242 41.2564 66.5179 41.2684L65.2157 43.8789C64.7381 44.772 64.5527 45.7924 64.6857 46.7964 64.9283 48.3491 65.8802 49.7003 67.2608 50.4512 67.6136 50.6401 67.9886 50.7841 68.3771 50.8799 68.7358 50.9682 69.1038 51.0129 69.4732 51.0132 70.3767 51.008 71.2601 50.7462 72.0206 50.2583 72.8024 49.7303 73.4391 49.0144 73.8722 48.1763 74.1109 47.6783 73.9007 47.081 73.4027 46.8423 72.9123 46.6072 72.3238 46.8072 72.0782 47.2925 71.8034 47.8117 71.4064 48.2563 70.9215 48.5879 70.3089 48.9819 69.5618 49.1083 68.8536 48.9379 68.6338 48.884 68.4215 48.8034 68.2213 48.6979 67.3866 48.2495 66.8101 47.4361 66.6635 46.5 66.5955 45.9006 66.7159 45.2948 67.0082 44.7671L69.0362 40.7012C69.0823 40.7002 69.1192 40.6968 69.1679 40.6963L69.6779 40.6915C70.4135 40.6846 71.1451 40.7999 71.8429 41.0327L75.43 42.229C78.9694 43.8338 80.9548 47.6487 80.2385 51.4683 80.1734 51.7728 80.2494 52.0904 80.4452 52.3325L83.39 55.87C81.8371 58.556 78.5041 59.632 75.6737 58.3613Z"/><path d="M77.0585 70 74.5693 70 65.8681 68.0928C65.3285 67.9747 64.7953 68.3163 64.6772 68.8559 64.559 69.3956 64.9007 69.9288 65.4403 70.0469L74.247 71.9769C74.3173 71.9921 74.389 71.9999 74.4609 72L77.0585 72C77.8317 72 78.4585 72.6268 78.4585 73.4L78.4575 75 76.3407 75C75.7884 75 75.3407 75.4477 75.3407 76 75.3407 76.5523 75.7884 77 76.3407 77L79.4565 77C80.0084 77 80.4559 76.5529 80.4565 76.001L80.4584 73.4023C80.4597 71.5245 78.9385 70.0013 77.0607 70 77.06 70 77.0592 70 77.0585 70Z"/><path d="M32.0053 66.0269 32.0053 64.8428C32.0053 64.2905 31.5576 63.8428 31.0053 63.8428 30.453 63.8428 30.0053 64.2905 30.0053 64.8428L30.0053 67.0034C30.0053 67.5557 30.453 68.0034 31.0053 68.0034L31.6029 68.0034C32.3761 68.0034 33.0029 68.6302 33.0029 69.4034L33.002 71.0034 29.3471 71.0034C28.429 71.0045 27.6285 70.3793 27.4071 69.4883L26.5644 66.1183C26.4224 65.5846 25.8747 65.267 25.3409 65.409 24.8184 65.548 24.501 66.0772 24.6244 66.6036L25.4672 69.9736C25.9101 71.7555 27.511 73.0058 29.3472 73.0036L34.001 73.0036C34.5529 73.0036 35.0004 72.5565 35.001 72.0046L35.0029 69.406C35.0039 67.683 33.7162 66.2315 32.0054 66.0271Z"/><path d="M78.0038 50.5C78.0038 51.3284 77.3322 52 76.5038 52 75.6754 52 75.0038 51.3284 75.0038 50.5 75.0038 49.6716 75.6754 49 76.5038 49 77.3322 49 78.0038 49.6716 78.0038 50.5Z"/></g></svg>