<svg width="624" height="624" xmlns="http://www.w3.org/2000/svg" xmlns:xlink="http://www.w3.org/1999/xlink" overflow="hidden"><defs><clipPath id="clip0"><rect x="0" y="0" width="624" height="624"/></clipPath></defs><g clip-path="url(#clip0)"><path d="M406.412 535.426C405.809 514.587 386.807 499.894 367.101 502.733L367.101 502.733 363.864 504.002 363.864 404.597 322.982 441.647 337.377 518.716C339.979 528.926 349.225 536.398 360.246 536.398L406.428 536.398C406.427 536.045 406.422 535.776 406.412 535.426Z" fill="#737373"/><path d="M279.045 514.399C279.961 526.602 290.153 536.22 302.59 536.22L330.377 536.22C330.377 535.867 330.372 535.516 330.362 535.166 329.759 514.327 310.757 499.634 291.05 502.473L279.045 502.473 279.045 514.399Z" fill="#D2D2D2"/><path d="M345.41 388.31C346.142 398.925 354.25 418.21 364.838 412.719 375.363 394.601 381.125 374.02 381.462 352.913 364.91 343.59 343.85 365.69 345.41 388.31Z" fill="#2F2F2F"/><path d="M295.095 321.482C270.184 343.376 250.897 368.556 235.8 396.175 233.596 400.206 231.483 404.29 229.453 408.423 221.867 423.869 215.463 440.002 210.01 456.687 226.33 457.73 242.135 437.6 242.97 418.21 247.457 419.363 249.823 418.73 254.67 418.73 285.722 418.73 314.99 387.642 314.99 356.59 314.99 343.325 310.57 322.79 295.095 321.482Z" fill="#2F2F2F"/><path d="M337.436 486.764C337.436 494.91 343.987 499.114 350.566 499.114 351.057 499.114 352.3 497.814 352.813 497.186L352.813 476.772C352.344 476.017 351.577 474.76 351.087 474.76 344.507 474.76 337.436 479.136 337.436 486.764Z" fill="#2F2F2F"/><path d="M206.57 467.706C202.931 479.902 199.755 492.368 196.962 505.055L182.412 505.055C162.581 505.055 143.001 500.673 125.06 492.241 121.723 493.48 119.209 495.556 118.473 498.16 117.713 500.846 118.689 504.27 120.637 508.099 142.51 523.367 168.636 531.935 195.575 532.455L195.582 532.646 229.839 532.646C235.17 529.88 242.45 520.523 242.45 514.41 242.45 494.461 228.02 460.98 206.57 467.706Z" fill="#2F2F2F"/><path d="M438.833 243.384C439.444 236.903 429.694 238.003 429.694 230.273 429.694 229.154 428.654 226.979 425.408 225.846L413.471 225.846C409.021 225.846 404.734 224.897 400.837 223.164 377.044 221.996 371.938 246.609 371.498 246.609 350.631 246.609 330.418 266.629 330.418 289.509 330.418 312.909 342.204 333.969 375.744 333.969 377.991 333.969 380.164 329.896 381.483 327.963L381.483 283.696C381.396 273.602 388.738 265.496 398.832 265.496 398.833 265.496 398.833 265.496 398.834 265.496L407.483 265.496C415.74 265.496 422.433 263.314 422.433 260.621 422.433 260.209 422.274 259.81 421.98 259.428 428.771 255.609 434.598 250.128 438.833 243.384Z" fill="#737373"/><path d="M358.217 502.382C356.038 502.603 354.26 502.794 352.813 502.962L352.813 497.186C352.338 497.235 351.857 497.269 351.367 497.269 344.787 497.269 339.453 492.662 339.453 486.979 339.453 481.296 344.788 476.689 351.369 476.689 351.859 476.689 352.339 476.722 352.813 476.771L352.813 429.984 352.882 429.946 355.85 426.102C359.152 421.824 362.147 417.351 364.838 412.719 364.838 412.719 364.838 412.719 364.838 412.719 357.152 406.523 352.232 397.037 352.232 386.396 352.232 369.28 364.957 355.145 381.462 352.912 381.472 352.258 381.482 351.604 381.482 350.949L381.482 327.964C379.343 328.34 377.147 328.547 374.901 328.547 354.034 328.547 337.119 311.632 337.119 290.766 337.119 269.9 354.034 252.985 374.901 252.985 375.341 252.985 375.777 253.003 376.214 253.018 380.652 240.4 389.459 229.848 400.825 223.171 400.83 223.168 400.829 223.162 400.824 223.16 393.237 219.783 387.13 213.429 384.191 205.278 380.257 194.366 370.131 186.919 358.531 186.919L353.092 186.919C331.527 186.919 313.882 204.563 313.882 226.129L313.882 288.932C313.882 298.843 309.689 308.29 302.34 314.939L295.703 320.944C295.498 321.122 295.298 321.303 295.095 321.482 302.778 331.096 307.382 343.279 307.382 356.543 307.382 387.62 281.43 413.197 250.357 412.762 245.792 412.699 241.359 412.091 237.12 411.001 236.285 430.392 225.638 447.236 210.01 456.687 208.819 460.333 207.674 464.006 206.571 467.704 206.571 467.704 206.571 467.705 206.571 467.706 222.234 477.686 232.632 495.195 232.632 515.143 232.632 521.256 231.644 527.136 229.839 532.646L253.509 532.646C253.509 532.646 253.509 532.646 253.509 532.646 257.215 535.068 261.641 536.48 266.399 536.48L312.597 536.48 312.567 535.426C311.963 514.587 293.611 499.894 273.905 502.733L271.705 502.733C271.677 502.733 271.677 502.728 271.704 502.72 291.076 497.894 305.432 480.388 305.432 459.521 305.432 458.331 305.371 457.155 305.279 455.987L313.654 451.405 325.657 514.66C325.657 514.661 325.657 514.661 325.657 514.662 326.576 526.863 336.759 536.479 349.196 536.479L395.393 536.479 395.362 535.425C394.759 514.587 379.137 500.262 358.217 502.382Z" fill="#505050"/><path d="M124.248 491.866 98.4002 479.509C94.9695 477.869 91.8606 482.264 94.5496 484.953L102.587 492.99C108.179 498.582 114.226 503.625 120.637 508.099 121.335 502.517 122.849 497.191 125.06 492.241 124.791 492.114 124.517 491.995 124.248 491.866Z" fill="#505050"/><path d="M260.238 504.697 250.832 504.697C250.474 504.697 250.182 504.406 250.182 504.047L250.182 504.047C250.182 503.688 250.474 503.397 250.832 503.397L260.257 503.397C284.545 503.397 304.932 483.527 304.782 459.24 304.709 447.524 300.107 436.591 291.79 428.357 291.538 428.108 291.53 427.705 291.775 427.448L291.775 427.448C292.027 427.186 292.449 427.179 292.707 427.435 301.269 435.913 306.007 447.169 306.082 459.231 306.236 484.238 285.245 504.697 260.238 504.697Z" fill="#737373"/><path d="M301.611 536.48 302.911 536.48C302.911 522.59 291.905 511.228 278.157 510.64 277.789 510.624 277.482 510.926 277.482 511.294L277.482 511.294C277.482 511.643 277.759 511.924 278.108 511.939 291.162 512.501 301.611 523.29 301.611 536.48Z" fill="#737373"/><path d="M294.382 536.48 295.682 536.48C295.682 526.523 287.948 518.344 278.173 517.623 277.799 517.596 277.482 517.901 277.482 518.276L277.482 518.276C277.482 518.618 277.749 518.894 278.091 518.919 287.187 519.598 294.382 527.213 294.382 536.48Z" fill="#737373"/><path d="M386.111 536.48 387.411 536.48C387.411 522.59 376.405 511.228 362.657 510.64 362.289 510.624 361.982 510.926 361.982 511.294L361.982 511.294C361.982 511.643 362.259 511.924 362.608 511.939 375.662 512.501 386.111 523.29 386.111 536.48Z" fill="#2F2F2F"/><path d="M378.882 536.48 380.182 536.48C380.182 526.523 372.448 518.344 362.673 517.623 362.299 517.596 361.982 517.901 361.982 518.276L361.982 518.276C361.982 518.618 362.249 518.894 362.591 518.919 371.687 519.598 378.882 527.213 378.882 536.48Z" fill="#2F2F2F"/><path d="M357.211 349.347C361.396 349.347 364.79 345.418 364.79 340.572 364.79 335.726 361.397 331.797 357.211 331.797 353.025 331.797 349.632 335.726 349.632 340.572 349.632 345.418 353.025 349.347 357.211 349.347Z" fill="#737373"/><path d="M323.047 368.534C321.189 366.657 317.904 366.896 315.71 369.07 313.516 371.244 313.245 374.527 315.104 376.405 316.963 378.282 320.249 378.042 322.442 375.868 324.635 373.695 324.906 370.411 323.047 368.534Z" fill="#2F2F2F"/><path d="M343.413 372.88C345.498 371.257 345.651 367.967 343.753 365.531 341.856 363.094 338.628 362.434 336.543 364.057 334.457 365.679 334.305 368.969 336.202 371.405 338.099 373.842 341.327 374.502 343.413 372.88Z" fill="#2F2F2F"/><path d="M323.677 388.391C320.716 391.35 321.095 396.528 324.522 399.955 327.948 403.382 333.125 403.76 336.085 400.801 339.045 397.842 338.667 392.664 335.24 389.237 331.813 385.81 326.636 385.431 323.677 388.391Z" fill="#2F2F2F"/><path d="M413.982 246.604C413.982 248.015 412.837 249.16 411.425 249.16 410.013 249.16 408.869 248.015 408.869 246.604 408.869 245.192 410.013 244.047 411.425 244.047 412.837 244.047 413.982 245.192 413.982 246.604Z" fill="#2F2F2F"/><path d="M417.145 235.641C417.145 237.052 416 238.197 414.588 238.197 413.176 238.197 412.032 237.052 412.032 235.641 412.032 234.229 413.176 233.084 414.588 233.084 416 233.084 417.145 234.229 417.145 235.641Z" fill="#2F2F2F"/><path d="M424.295 246.604C424.295 248.015 423.15 249.16 421.738 249.16 420.326 249.16 419.182 248.015 419.182 246.604 419.182 245.192 420.326 244.047 421.738 244.047 423.15 244.047 424.295 245.192 424.295 246.604Z" fill="#2F2F2F"/><path d="M442.029 237.377C444.43 231.951 440.457 225.847 434.522 225.847L425.408 225.847C425.165 226.892 425.032 227.978 425.032 229.097 425.032 236.827 431.167 243.121 438.833 243.385 440.029 241.479 441.1 239.474 442.029 237.377L442.029 237.377Z"/><path d="M420.562 260.08C416.093 260.793 411.611 261.166 407.089 261.297 402.572 261.412 398.026 261.249 393.491 260.619 388.965 259.982 384.418 258.882 380.125 256.81 377.978 255.786 375.932 254.437 374.1 252.784 372.272 251.129 370.692 249.122 369.53 246.869 368.944 245.731 369.39 244.334 370.527 243.748 371.665 243.162 373.062 243.608 373.648 244.745 373.671 244.79 373.693 244.836 373.713 244.882L373.72 244.897C375.267 248.474 378.227 251.429 381.879 253.488 383.703 254.519 385.666 255.371 387.697 256.082 389.733 256.787 391.845 257.324 393.983 257.777 398.267 258.661 402.676 259.113 407.102 259.288 411.525 259.449 415.997 259.367 420.402 258.955L420.421 258.953C420.733 258.924 421.01 259.153 421.039 259.466 421.066 259.765 420.855 260.032 420.562 260.08Z" fill="#2F2F2F"/><path d="M384.02 215.496C382.114 214.673 379.296 214.066 377.582 213.771 377.576 213.77 377.582 213.759 377.582 213.754 374.88 215.163 373.032 217.987 373.032 221.246 373.032 225.913 376.815 229.696 381.482 229.696 386.149 229.696 389.932 225.913 389.932 221.246 389.932 220.24 389.747 219.28 389.425 218.386 387.92 217.36 385.845 216.284 384.02 215.496Z" fill="#FFFFFF"/><path d="M384.407 220.596C386.394 220.596 388.177 219.741 389.425 218.386 388.251 215.129 385.143 212.796 381.482 212.796 380.074 212.796 378.75 213.145 377.582 213.754 377.582 213.76 377.582 213.765 377.582 213.771 377.582 217.54 380.637 220.596 384.407 220.596Z" fill="#2F2F2F"/><path d="M351.306 214.376C351.306 204.667 350.375 195.427 348.698 187.041 329.098 189.099 313.821 205.674 313.821 225.819L313.821 282.652C313.821 282.655 313.823 282.658 313.825 282.659 315.552 283.275 317.323 283.602 319.131 283.602 336.901 283.601 351.306 252.608 351.306 214.376Z" fill="#2F2F2F"/><path d="M435.432 301.764C410.938 301.764 398.859 293.441 393.927 288.636 393.908 288.619 393.912 288.614 393.934 288.626 396.861 290.198 401.572 292.145 406.949 292.145 417.607 292.145 423.359 289.062 423.359 286.161 423.359 283.26 417.607 280.177 406.949 280.177 399.71 280.177 393.676 283.707 391.581 285.096 368.887 268.644 354.789 239.816 354.789 209.85L354.789 192.696 353.49 192.696 353.49 209.85C353.49 238.366 366.096 265.873 386.69 282.944 386.71 282.961 386.708 282.966 386.684 282.955 383.765 281.573 379.692 280.177 375.141 280.177 364.483 280.177 358.732 283.26 358.732 286.161 358.732 289.062 364.483 292.145 375.141 292.145 382.663 292.145 388.883 288.334 390.736 287.074 390.833 287.202 390.941 287.34 391.058 287.487 393.326 292.411 403.915 312.296 426.94 312.296L426.94 310.996C408.797 310.996 398.629 298.173 394.309 290.868 394.298 290.849 394.302 290.846 394.319 290.861 400.062 295.917 412.272 303.064 435.432 303.064L435.432 301.764ZM406.949 281.478C415.854 281.478 422.059 283.947 422.059 286.162 422.059 288.377 415.854 290.846 406.949 290.846 400.189 290.846 394.371 287.488 392.345 286.167 392.341 286.164 392.341 286.159 392.345 286.157 394.371 284.836 400.189 281.478 406.949 281.478ZM375.141 290.846C366.237 290.846 360.032 288.377 360.032 286.162 360.032 283.947 366.237 281.478 375.141 281.478 381.902 281.478 387.719 284.836 389.745 286.157 389.749 286.159 389.749 286.164 389.745 286.167 387.72 287.488 381.902 290.846 375.141 290.846Z" fill="#2F2F2F"/><path d="M378.88 195.289 353.469 107.869C353.467 107.863 353.459 107.863 353.457 107.869L328.125 195.289C328.123 195.292 328.126 195.297 328.131 195.297L378.874 195.297C378.878 195.297 378.88 195.292 378.88 195.289Z" fill="#FFC000"/><path d="M529.682 131.922C529.682 156.872 501.744 177.097 467.282 177.097 432.819 177.097 404.882 156.872 404.882 131.922 404.882 106.973 432.819 86.747 467.282 86.747 501.744 86.747 529.682 106.973 529.682 131.922Z" fill="#E5E5E5"/><path d="M441.932 190.097C441.932 195.482 437.567 199.847 432.182 199.847 426.797 199.847 422.432 195.482 422.432 190.097 422.432 184.712 426.797 180.347 432.182 180.347 437.567 180.347 441.932 184.712 441.932 190.097Z" fill="#E5E5E5"/><path d="M411.874 207.076C411.874 210.263 409.291 212.847 406.103 212.847 402.916 212.847 400.332 210.263 400.332 207.076 400.332 203.888 402.916 201.304 406.103 201.304 409.291 201.304 411.874 203.888 411.874 207.076Z" fill="#E5E5E5"/><path d="M491.444 132.684C492.141 132.219 492.783 131.637 493.334 130.922 495.729 127.815 495.477 123.289 492.738 120.481 489.631 117.295 484.528 117.27 481.391 120.408 479.883 121.917 479.112 123.878 479.065 125.854L459.861 125.852C459.812 123.815 458.994 121.794 457.393 120.269 454.39 117.408 449.53 117.372 446.486 120.19 443.149 123.281 443.073 128.496 446.26 131.682 446.641 132.064 447.051 132.397 447.483 132.684 447.487 132.687 447.487 132.692 447.483 132.694 446.785 133.158 446.143 133.742 445.591 134.458 443.199 137.561 443.449 142.082 446.181 144.89 449.288 148.084 454.395 148.111 457.535 144.97 458.845 143.659 459.597 142.005 459.805 140.298 459.805 140.298 479.121 140.298 479.121 140.298 479.329 142.009 480.083 143.666 481.398 144.977 484.386 147.959 489.346 148.055 492.442 145.187 495.778 142.096 495.853 136.882 492.667 133.696 492.286 133.314 491.876 132.982 491.444 132.695 491.44 132.692 491.44 132.687 491.444 132.684Z" fill="#FFFFFF"/></g></svg>