<svg width="96" height="96" xmlns="http://www.w3.org/2000/svg" xmlns:xlink="http://www.w3.org/1999/xlink" overflow="hidden"><defs><clipPath id="clip0"><rect x="0" y="0" width="96" height="96"/></clipPath></defs><g clip-path="url(#clip0)"><path d="M80.7475 33.9038 79.894 33.9038C79.3689 30.0142 76.9019 26.6586 73.3461 24.9971 72.6097 21.7993 71.1701 17.9038 68.5061 17.9038 65.7885 17.9038 64.3441 21.9573 63.6216 25.1887 61.6264 26.1912 59.8393 27.5626 58.3547 29.2305L53.2658 34.1636 47.0146 40.415C45.4245 42.0138 43.2607 42.91 41.0058 42.9038L22.662 42.9038 17.8344 38.0757C16.2518 36.564 13.7603 36.564 12.1777 38.0757 10.6158 39.6367 10.6151 42.1684 12.1761 43.7303 12.1766 43.7308 12.1772 43.7314 12.1777 43.7319L17.0058 48.56 17.0058 58.995 17.0048 59 17.0048 70C17.0047 70.1075 17.022 70.2144 17.0561 70.3164L18.3725 74.2646C18.9151 75.8992 20.4446 77.0018 22.1669 77L25.0043 77C27.2116 76.9977 29.0007 75.2097 29.0043 73.0024L29.0043 72.4014C29.0046 70.6778 27.7158 69.2264 26.0043 69.0229L26.0043 66.4141 28.4189 64 47.0048 64 47.0048 70C47.0047 70.1075 47.022 70.2144 47.0561 70.3164L48.3725 74.2646C48.9154 75.8992 50.445 77.0018 52.1674 77L55.0048 77C57.2121 76.9969 59.0009 75.2088 59.0048 73.0015L59.0048 72.4015C59.0054 70.6777 57.7165 69.2261 56.0048 69.0225L56.0048 63.46 61.0053 59.167 61.0053 63.9019 61.0048 63.9043 61.0048 70C61.0048 70.5523 61.4525 71 62.0048 71L62.6048 71C63.378 71 64.0048 71.6268 64.0048 72.4L64.0043 73.0011C64.0023 74.1047 63.1079 74.9986 62.0043 75.0001L60.1674 75.0001C59.6151 75.0001 59.1674 75.4478 59.1674 76.0001 59.1674 76.5524 59.6151 77.0001 60.1674 77.0001L62.0048 77.0001C64.2118 76.9971 66.0005 75.2095 66.0048 73.0025L66.0053 72.4015C66.0052 70.6781 64.7166 69.2269 63.0053 69.023L63.0053 63.9038 63.0058 63.9038 63.0058 57.707C63.0106 53.3994 66.5014 49.9086 70.809 49.9038L75.5282 49.9038C81.3121 49.8973 85.9992 45.2102 86.0058 39.4263L86.0058 39.1621C86.0025 36.2594 83.6502 33.9071 80.7475 33.9038ZM54.3539 62.2412C54.1327 62.4312 54.0054 62.7084 54.0053 63L54.0053 70C54.0053 70.5523 54.453 71 55.0053 71L55.6053 71C56.3785 71.0003 57.005 71.6274 57.0047 72.4006 57.0047 72.4007 57.0047 72.4008 57.0047 72.4009L57.0047 73.0009C57.0027 74.1045 56.1083 74.9984 55.0047 74.9999L52.1674 74.9999C51.3062 75.0008 50.5414 74.4496 50.27 73.6323L49.0049 69.8379 49.0049 63C49.0049 62.4477 48.5572 62 48.0049 62L28.0049 62C27.7399 62.0015 27.486 62.1067 27.2976 62.2932L24.2976 65.2932C24.1101 65.4807 24.0047 65.735 24.0046 66.0002L24.0046 70.0002C24.0046 70.5525 24.4523 71.0002 25.0046 71.0002L25.6046 71.0002C26.3778 71.0002 27.0046 71.627 27.0046 72.4002L27.0046 73.0013C27.0029 74.105 26.1083 74.9991 25.0046 75.0003L22.1669 75.0003C21.3058 75.0013 20.5411 74.4499 20.2699 73.6326L19.0048 69.8382 19.0048 63.9087 19.0058 63.9038 19.0058 48.146C19.0042 47.881 18.8989 47.6271 18.7125 47.4387L13.5917 42.3179C12.8109 41.5376 12.8104 40.272 13.5907 39.4912 13.5912 39.4907 13.5917 39.4902 13.5922 39.4897 14.3832 38.7339 15.6288 38.7339 16.4198 39.4897L21.5406 44.6106C21.729 44.7971 21.9829 44.9024 22.248 44.9038L41.0058 44.9038C43.7914 44.9116 46.4644 43.8044 48.4286 41.8291L49.223 41.0347 61.8768 53.689C61.4806 54.5668 61.2172 55.4986 61.0951 56.4539ZM62.9239 51.9075 50.637 39.6206 52.2229 38.0347 64.4493 50.2612C63.8798 50.7502 63.3679 51.3025 62.9236 51.9075ZM84.0058 39.4263C84.0003 44.1061 80.208 47.8984 75.5282 47.9038L70.809 47.9038C69.1695 47.9021 67.556 48.3143 66.1182 49.1021L53.6369 36.62 54.6689 35.588 59.7734 30.638C60.7763 29.5297 61.9115 28.5488 63.1534 27.7171 63.0861 28.1753 63.0394 28.5501 63.0122 28.7913 62.9435 29.3393 63.3321 29.8392 63.88 29.9079 64.428 29.9766 64.928 29.5881 64.9967 29.0401 64.9977 29.0317 64.9987 29.0233 64.9995 29.0149 65.4312 25.1949 66.8895 19.9031 68.5059 19.9031 70.1223 19.9031 71.5806 25.1951 72.0122 29.0149 72.069 29.5202 72.496 29.9023 73.0044 29.9031 73.0423 29.9032 73.0801 29.9011 73.1177 29.8968 73.6665 29.835 74.0612 29.3401 73.9995 28.7913 73.9695 28.5262 73.9148 28.0945 73.8359 27.5718 76.2949 29.2481 77.8287 31.9779 77.9815 34.95L78.0264 35.9031 80.7476 35.9031C82.5463 35.9051 84.0039 37.3627 84.0059 39.1614Z"/><path d="M33.0048 69.0229 33.0048 66C33.0048 65.4477 32.5571 65 32.0048 65 31.4525 65 31.0048 65.4477 31.0048 66L31.0048 70C31.0048 70.5523 31.4525 71 32.0048 71L32.6048 71C33.378 71 34.0048 71.6268 34.0048 72.4L34.0043 73.0011C34.0026 74.1048 33.108 74.9989 32.0043 75.0001L30.1669 75.0001C29.6146 75.0001 29.1669 75.4478 29.1669 76.0001 29.1669 76.5524 29.6146 77.0001 30.1669 77.0001L32.0043 77.0001C34.2116 76.9978 36.0007 75.2098 36.0043 73.0025L36.0048 72.4025C36.0054 70.6787 34.7165 69.227 33.0048 69.0235Z"/><path d="M76.0038 34.5C76.0038 35.3284 75.3322 36 74.5038 36 73.6754 36 73.0038 35.3284 73.0038 34.5 73.0038 33.6716 73.6754 33 74.5038 33 75.3322 33 76.0038 33.6716 76.0038 34.5Z"/></g></svg>