<svg width="624" height="624" xmlns="http://www.w3.org/2000/svg" xmlns:xlink="http://www.w3.org/1999/xlink" overflow="hidden"><defs><clipPath id="clip0"><rect x="0" y="0" width="624" height="624"/></clipPath></defs><g clip-path="url(#clip0)"><path d="M357.27 193.645C356.395 189.489 356.482 185.502 354.575 182.686 352.18 179.148 346.689 177.529 343.844 176.108L331.908 176.108C323.301 176.108 315.301 172.567 309.56 166.648 306.545 163.54 304.153 159.776 302.622 155.525L302.622 155.525C298.66 144.519 288.22 137.181 276.522 137.181L271.528 137.181C261.783 137.181 252.967 141.413 246.09 147.354 240.556 167.578 255.315 187.814 274.755 194.516 271.714 200.914 270.847 205.511 270.595 213.062 270.249 223.462 274.739 240.308 286.715 249.289 271.897 252.873 264.181 269.422 264.181 285.342 264.181 296.561 271.635 316.542 286.257 311.973L299.825 252.855 299.918 233.958C299.831 223.866 307.171 215.761 317.262 215.758L325.918 215.758C334.175 215.758 340.868 213.575 340.868 210.883 340.868 210.472 340.71 210.073 340.417 209.692 347.209 205.872 353.035 200.39 357.27 193.645Z" fill="#737373"/><path d="M328.504 485.419C327.905 464.781 305.013 449.501 285.43 451.965L265.482 381.022 251.573 381.173 259.004 462.295C259.139 463.761 259.508 465.191 260.101 466.539 262.581 472.17 270.084 486.472 282.337 486.472L328.519 486.472C328.518 486.12 328.513 485.768 328.504 485.419Z" fill="#737373"/><path d="M251.875 389.169C251.875 396.146 259.855 403.383 266.435 403.383 267.151 403.383 270.336 399.876 271.005 398.97 271.006 398.969 271.006 398.967 271.006 398.966L271.004 378.96 271.125 378.739C270.527 377.967 267.194 374.956 266.434 374.956 259.854 374.956 251.875 382.236 251.875 389.169Z" fill="#505050"/><path d="M174.873 465.017 174.947 464.998C175.864 477.201 186.049 486.517 198.486 486.517L244.668 486.517C244.668 486.164 244.663 486.115 244.654 485.766 244.05 464.927 225.048 450.234 205.341 453.073L184.868 453.073 174.873 465.017Z" fill="#737373"/><path d="M219.79 264.348 213.894 269.917C190.286 290.538 171.779 314.096 157.096 339.874 155.91 341.957 154.749 344.054 153.613 346.165 145.972 360.353 139.43 375.18 133.783 390.529 149.522 389.949 162.664 373.083 163.432 355.239 168.056 356.427 172.209 356.708 177.212 356.669 208.027 356.432 236.629 322.485 236.492 291.669 236.446 281.382 232.721 264.629 219.79 264.348Z" fill="#505050"/><path d="M46.6525 441.514C46.6492 441.512 46.6498 441.515 46.6479 441.518 42.1824 447.799 44.2286 456.569 51.0133 460.227 66.194 468.411 91.91 480.786 109.881 481.562L143.945 481.719C159.66 476.368 161.339 462.35 161.339 451.22 161.339 432.117 150.303 398.587 128.679 405.323 123.517 421.18 119.198 437.525 115.527 454.262 115.527 454.262 111.161 457.738 98.161 457.738 78.7351 457.739 46.8988 441.639 46.6525 441.514Z" fill="#505050"/><path d="M298.176 251.893C298.184 251.891 298.184 251.885 298.178 251.882 286.213 242.9 278.468 228.598 278.468 212.485 278.468 204.929 280.175 197.774 283.217 191.376 263.776 184.673 249.278 168.246 246.09 147.42 237.748 154.625 233.09 164.637 233.09 176.457L232.136 233.091 232.073 252.814 219.79 264.414C224.658 272.694 227.478 282.323 227.523 292.612 227.657 323.426 202.552 348.849 171.737 349.084 166.735 349.123 161.884 348.507 157.261 347.319 156.493 365.163 147.406 380.841 133.783 390.595 131.995 395.457 130.293 400.369 128.678 405.331 143.239 415.492 152.773 432.358 152.773 451.461 152.773 462.59 149.527 472.955 143.947 481.686L169.903 481.686C169.903 481.686 169.944 481.717 169.959 481.73 173.987 484.907 179.062 486.819 184.591 486.819L230.773 486.819C230.773 486.466 230.768 486.115 230.758 485.765 230.234 467.65 215.805 454.186 199.097 452.838 199.074 452.836 199.074 452.831 199.096 452.826 218.995 448.921 234.134 431.764 234.954 410.922 238.007 413.673 240.043 417.375 240.413 421.934L244.036 466.637C245.699 478.05 255.513 486.819 267.387 486.819L313.57 486.819C313.57 486.467 313.565 486.115 313.555 485.765 312.951 464.926 293.949 450.234 274.243 453.072L271.006 454.342 271.008 398.967C270.326 399.072 269.626 399.136 268.91 399.136 262.33 399.136 256.996 394.529 256.996 388.846 256.996 383.163 262.331 378.556 268.911 378.556 269.669 378.556 270.406 378.623 271.125 378.74 271.128 378.741 271.131 378.739 271.132 378.735L286.259 312.039C277.845 305.891 272.375 295.955 272.375 284.736 272.375 269.071 283.033 255.9 297.493 252.068L298.176 251.893Z" fill="#D2D2D2"/><path d="M264.351 274.269C268.536 274.269 271.93 270.341 271.93 265.494 271.93 260.648 268.537 256.719 264.351 256.719 260.166 256.719 256.773 260.648 256.773 265.494 256.773 270.341 260.166 274.269 264.351 274.269Z" fill="#505050"/><path d="M235.851 305.321C233.657 307.494 233.386 310.778 235.245 312.655 237.104 314.532 240.389 314.293 242.583 312.119 244.776 309.946 245.047 306.662 243.188 304.784 241.329 302.907 238.045 303.147 235.851 305.321Z" fill="#505050"/><path d="M263.554 309.13C265.639 307.508 265.792 304.218 263.894 301.781 261.997 299.344 258.769 298.685 256.684 300.307 254.598 301.93 254.446 305.219 256.343 307.656 258.24 310.093 261.468 310.753 263.554 309.13Z" fill="#505050"/><path d="M262.52 324.215C259.56 327.175 259.938 332.353 263.365 335.78 266.791 339.206 271.968 339.585 274.929 336.626 277.889 333.666 277.51 328.489 274.084 325.062 270.657 321.635 265.48 321.256 262.52 324.215Z" fill="#505050"/><path d="M332.418 196.864C332.418 198.276 331.274 199.421 329.862 199.421 328.45 199.421 327.306 198.276 327.306 196.864 327.306 195.452 328.45 194.308 329.862 194.308 331.274 194.308 332.418 195.452 332.418 196.864Z" fill="#2F2F2F"/><path d="M336.231 188.574C336.231 189.986 335.087 191.131 333.675 191.131 332.263 191.131 331.118 189.986 331.118 188.574 331.118 187.162 332.263 186.018 333.675 186.018 335.087 186.018 336.231 187.162 336.231 188.574Z" fill="#2F2F2F"/><path d="M342.731 196.864C342.731 198.276 341.587 199.421 340.175 199.421 338.763 199.421 337.618 198.276 337.618 196.864 337.618 195.452 338.763 194.308 340.175 194.308 341.587 194.308 342.731 195.452 342.731 196.864Z" fill="#2F2F2F"/><path d="M360.465 187.639C362.867 182.212 358.894 176.108 352.959 176.108L343.845 176.108C343.602 177.153 343.469 178.24 343.469 179.358 343.469 187.089 349.604 193.382 357.27 193.646 358.465 191.74 359.537 189.736 360.465 187.639L360.465 187.639Z" fill="#2F2F2F"/><path d="M304.299 171.694C303.482 167.577 299.717 164.612 295.421 164.917 290.766 165.247 287.26 169.288 287.59 173.943 287.886 178.127 291.184 181.373 295.228 181.75 296.519 180.162 303.116 173.012 304.299 171.694Z" fill="#FFFFFF"/><path d="M304.448 172.748C304.422 172.388 304.367 172.038 304.299 171.694 303.058 170.819 301.52 170.349 299.887 170.464 296.127 170.731 293.296 173.995 293.562 177.755 293.671 179.293 294.287 180.67 295.229 181.749 295.684 181.791 296.146 181.807 296.616 181.774 301.271 181.444 304.777 177.403 304.448 172.748Z" fill="#2F2F2F"/><path d="M338.946 209.289C334.539 209.7 330.068 209.783 325.645 209.622 321.22 209.446 316.81 208.995 312.526 208.111 310.389 207.658 308.276 207.121 306.24 206.416 304.209 205.705 302.247 204.853 300.422 203.822 296.77 201.763 293.811 198.808 292.263 195.231L292.259 195.221C291.751 194.046 290.387 193.507 289.213 194.015 288.038 194.523 287.499 195.886 288.007 197.061 288.027 197.107 288.051 197.158 288.074 197.203 289.236 199.455 290.816 201.464 292.644 203.118 294.476 204.771 296.522 206.12 298.669 207.145 302.962 209.216 307.509 210.317 312.036 210.953 316.571 211.583 321.117 211.747 325.634 211.632 330.154 211.501 334.638 211.127 339.107 210.414 339.417 210.365 339.628 210.073 339.579 209.763 339.531 209.466 339.262 209.26 338.967 209.288L338.946 209.289Z" fill="#2F2F2F"/><path d="M269.446 165.093C269.446 155.384 268.45 145.813 266.772 137.427 247.172 139.484 231.961 156.391 231.961 176.536L231.961 233.374C233.689 233.992 235.462 234.318 237.271 234.318 255.041 234.318 269.446 203.325 269.446 165.093Z" fill="#2F2F2F"/><path d="M232.025 239.758 299.992 239.758 299.992 252.819 232.025 252.819Z" fill="#FFC000"/><path d="M189.784 453.786C189.789 453.434 190.074 453.155 190.425 453.15 214.458 452.815 234.289 433.439 234.318 409.334 234.332 397.491 229.722 386.428 221.326 378.114 221.073 377.865 221.065 377.461 221.311 377.205L221.311 377.205C221.562 376.943 221.984 376.936 222.242 377.192 230.886 385.752 235.633 397.142 235.618 409.335 235.588 434.149 215.181 454.095 190.443 454.449 190.078 454.455 189.779 454.152 189.784 453.786L189.784 453.786Z" fill="#E6E6E6"/><path d="M197.765 461.289C197.397 461.274 197.09 461.575 197.09 461.943 197.09 462.292 197.367 462.573 197.716 462.588 210.668 463.145 221.049 473.771 221.211 486.819L222.511 486.819C222.348 473.071 211.411 461.872 197.765 461.289Z" fill="#737373"/><path d="M197.781 468.272C197.407 468.245 197.09 468.551 197.09 468.925 197.09 469.267 197.357 469.543 197.699 469.568 206.693 470.239 213.824 477.693 213.983 486.819L215.283 486.819C215.123 477.004 207.454 468.986 197.781 468.272Z" fill="#737373"/><path d="M279.298 461.289C278.931 461.274 278.623 461.575 278.623 461.943 278.623 462.292 278.901 462.573 279.25 462.588 292.201 463.145 302.582 473.771 302.745 486.819L304.045 486.819C303.882 473.071 292.944 461.872 279.298 461.289Z" fill="#737373"/><path d="M279.315 468.272C278.941 468.245 278.624 468.551 278.624 468.925 278.624 469.267 278.891 469.543 279.233 469.568 288.228 470.239 295.357 477.693 295.517 486.819L296.817 486.819C296.657 477.004 288.988 468.986 279.315 468.272Z" fill="#737373"/><path d="M347.137 402.956 346.824 402.954 346.824 402.954C346.824 402.954 346.824 402.954 346.824 402.954 346.272 402.954 345.727 402.981 345.185 403.021 334.378 403.82 325.753 412.445 324.954 423.253 324.914 423.794 324.886 424.34 324.886 424.891L324.886 424.891 324.886 424.891C324.886 424.891 324.887 425.045 324.888 425.137 324.888 425.177 324.888 425.207 324.888 425.207 325.055 437.072 334.643 446.658 346.507 446.826 346.507 446.826 346.824 446.829 346.824 446.829 347.376 446.829 347.921 446.802 348.463 446.762 359.271 445.963 367.895 437.338 368.694 426.531 368.735 425.989 368.762 425.444 368.762 424.892 368.762 424.892 368.762 424.892 368.762 424.892 368.761 412.881 359.107 403.125 347.137 402.956Z" fill="#FFC000"/><path d="M368.759 424.575 368.534 424.585C368.384 424.59 368.234 424.595 368.083 424.595 356.524 424.595 347.12 415.191 347.12 403.632 347.12 403.479 347.125 403.328 347.131 403.176L347.137 402.956 346.824 402.954C346.272 402.954 345.727 402.981 345.185 403.021L345.182 403.109C345.176 403.283 345.171 403.457 345.171 403.632 345.171 416.266 355.449 426.545 368.083 426.545 368.257 426.545 368.43 426.539 368.603 426.533L368.694 426.531C368.735 425.989 368.762 425.444 368.762 424.892L368.759 424.575Z" fill="#FFFFFF"/><path d="M348.477 446.15C348.477 433.516 338.199 423.238 325.565 423.238 325.391 423.238 324.954 423.253 324.954 423.253 324.914 423.794 324.886 424.34 324.886 424.891 324.886 424.891 324.888 425.206 324.888 425.206 324.888 425.206 325.413 425.188 325.565 425.188 337.124 425.188 346.527 434.592 346.527 446.15 346.527 446.304 346.507 446.83 346.507 446.83 346.507 446.83 346.824 446.829 346.824 446.829 347.376 446.829 347.921 446.802 348.463 446.761 348.462 446.761 348.477 446.326 348.477 446.15Z" fill="#FFFFFF"/><path d="M381.166 362.56 381.168 362.246 381.168 362.246C381.168 362.246 381.168 362.246 381.168 362.246 381.168 361.694 381.141 361.149 381.101 360.608 380.302 349.8 371.678 341.176 360.87 340.377 360.329 340.337 359.783 340.309 359.232 340.309L359.232 340.309 359.232 340.309C359.232 340.309 359.078 340.31 358.986 340.311 358.946 340.311 358.916 340.311 358.916 340.311 347.052 340.478 337.466 350.065 337.297 361.929 337.297 361.929 337.294 362.246 337.294 362.246 337.294 362.798 337.321 363.343 337.362 363.884 338.161 374.692 346.785 383.316 357.592 384.115 358.134 384.155 358.679 384.182 359.231 384.182 359.231 384.182 359.231 384.182 359.231 384.182 371.242 384.183 380.997 374.53 381.166 362.56Z" fill="#E6E6E6"/><path d="M359.548 384.181 359.538 383.956C359.533 383.805 359.528 383.656 359.528 383.505 359.528 371.946 368.932 362.543 380.49 362.543 380.643 362.543 380.795 362.548 380.947 362.553L381.166 362.56 381.168 362.246C381.168 361.694 381.141 361.149 381.101 360.608L381.014 360.605C380.84 360.599 380.665 360.593 380.49 360.593 367.856 360.593 357.578 370.872 357.578 383.505 357.578 383.679 357.584 383.852 357.59 384.025L357.592 384.116C358.134 384.156 358.679 384.184 359.231 384.184L359.548 384.181Z" fill="#FFFFFF"/><path d="M337.973 363.9C350.607 363.9 360.885 353.621 360.885 340.988 360.885 340.814 360.87 340.377 360.87 340.377 360.329 340.337 359.783 340.309 359.232 340.309 359.232 340.309 358.917 340.311 358.917 340.311 358.917 340.311 358.935 340.837 358.935 340.988 358.935 352.546 349.532 361.95 337.973 361.95 337.82 361.95 337.293 361.93 337.293 361.93 337.293 361.93 337.295 362.246 337.295 362.246 337.295 362.798 337.322 363.343 337.362 363.885 337.362 363.886 337.798 363.9 337.973 363.9Z" fill="#FFFFFF"/><path d="M323.469 285.711 323.156 285.708 323.156 285.708C323.156 285.708 323.156 285.708 323.156 285.708 322.604 285.708 322.059 285.735 321.517 285.776 310.71 286.575 302.086 295.199 301.286 306.007 301.246 306.548 301.218 307.094 301.218 307.646L301.218 307.646 301.218 307.646C301.218 307.646 301.219 307.8 301.22 307.892 301.22 307.932 301.22 307.962 301.22 307.962 301.387 319.827 310.975 329.413 322.839 329.581 322.839 329.581 323.156 329.584 323.156 329.584 323.708 329.584 324.253 329.557 324.795 329.517 335.603 328.718 344.227 320.093 345.026 309.286 345.067 308.744 345.094 308.199 345.094 307.647 345.094 307.647 345.094 307.647 345.094 307.647 345.093 295.635 335.44 285.879 323.469 285.711Z" fill="#F2F2F2"/><path d="M345.091 307.33 344.866 307.339C344.716 307.344 344.566 307.349 344.415 307.349 332.856 307.349 323.452 297.945 323.452 286.387 323.452 286.233 323.458 286.082 323.463 285.93L323.469 285.71 323.155 285.708C322.603 285.708 322.058 285.735 321.517 285.776L321.514 285.863C321.508 286.037 321.502 286.211 321.502 286.387 321.502 299.021 331.781 309.299 344.415 309.299 344.589 309.299 344.762 309.293 344.934 309.288L345.026 309.285C345.066 308.743 345.093 308.198 345.093 307.646L345.091 307.33Z" fill="#FFFFFF"/><path d="M324.81 328.905C324.81 316.271 314.531 305.992 301.897 305.992 301.723 305.992 301.286 306.007 301.286 306.007 301.246 306.548 301.218 307.094 301.218 307.646 301.218 307.646 301.22 307.961 301.22 307.961 301.22 307.961 301.746 307.943 301.897 307.943 313.456 307.943 322.86 317.347 322.86 328.905 322.86 329.059 322.839 329.585 322.839 329.585 322.839 329.585 323.156 329.584 323.156 329.584 323.708 329.584 324.253 329.556 324.795 329.516 324.795 329.516 324.81 329.08 324.81 328.905Z" fill="#FFFFFF"/><path d="M420.644 383.236 420.317 421.556C416.641 419.892 412.564 418.956 408.267 418.956 392.114 418.956 379.021 432.05 379.021 448.202L412.394 448.202C439.416 448.202 447.664 423.485 447.664 423.485L447.664 388.841 420.644 383.236Z" fill="#FFC000"/><path d="M387.732 448.203C387.859 436.879 397.105 427.706 408.458 427.706 408.782 427.706 409.045 427.443 409.045 427.119 409.045 426.795 408.782 426.533 408.458 426.533 396.458 426.533 386.686 436.233 386.558 448.203L387.732 448.203Z" fill="#FFFFFF"/><path d="M578.893 413.717C578.495 412.566 577.958 411.455 577.271 410.404 571.953 402.269 559.838 400.778 550.211 407.073 550.103 407.143 550.001 407.218 549.894 407.29 548.033 392.177 543.652 370.282 529.303 348.033 514.916 325.726 488.591 317.002 472.4 300.516 457.746 285.596 450.108 245.373 450.108 245.373 450.108 245.373 465.36 188.47 440.806 176.013 434.453 172.79 424.521 219.043 424.38 219.718 424.302 219.76 422.512 220.732 421.715 222.013 421.431 222.47 421.104 222.996 420.74 223.58 419.232 200.295 415.666 179.577 411.505 179.577 406.918 179.577 404.089 220.493 403.287 233.854 403.218 234.998 403.098 240.765 402.986 246.878 398.086 251.716 392.66 255.647 387.139 256.939 392.723 263 393.557 272.767 393.557 281.658 393.557 282.452 394.625 283.985 395.825 283.907 423.499 284.407 443.362 305.547 443.362 333.34 443.362 348.353 436.748 359.986 426.408 369.301 427.246 372.194 427.465 376.873 427.465 380.036 427.465 386.782 424.18 391.182 424.825 397.282 439.787 410.474 461.364 422.667 483.575 423.624 483.921 423.639 484.544 423.682 484.544 423.682 477.372 429.008 473.288 437.341 473.001 447.251 472.992 447.567 472.987 447.884 472.987 448.203L514.667 448.203C521.431 448.203 527.452 445.049 531.354 440.134 531.354 440.134 553.461 440.162 554.215 440.259 554.215 440.259 554.216 440.259 554.216 440.259 554.685 440.088 554.988 439.97 555.545 439.696 561.659 437.604 567.481 433.763 571.345 428.14 573.34 425.238 574.786 423.134 578.526 414.974 578.725 414.727 579.004 414.039 578.893 413.717Z" fill="#FFC000"/><path d="M446.002 332.199C446.002 304.407 423.721 281.821 396.048 281.321 396.051 281.275 396.042 281.165 396.022 280.999 394.275 267.11 399.516 253.375 409.805 243.883 416.754 237.474 421.896 229.137 424.382 219.719 423.948 219.702 418.57 219.683 418.57 219.683 408.013 219.683 398.59 226.306 395.014 236.239L395.014 236.239C392.631 242.858 387.936 248.166 382.034 251.386 377.997 253.588 373.396 254.814 368.584 254.814L360.089 254.814 357.812 254.814C356.249 255.554 352.103 257.509 350.343 259.191 348.428 261.021 346.276 265.214 345.696 270.642 349.518 276.728 354.776 281.677 360.905 285.124 360.64 285.468 360.498 285.828 360.498 286.199 360.498 287.765 363.007 289.138 366.785 289.918 368.87 290.348 371.34 290.599 373.99 290.599L381.798 290.599C385.952 290.599 389.587 292.124 392.308 294.643 395.554 297.648 397.498 302.069 397.455 307.024L397.455 328.42C397.455 334.503 398.072 340.513 399.115 346.459 400.6 354.93 402.958 363.269 405.691 371.494 406.673 374.449 408.234 377.582 410.292 380.786 413.825 386.284 418.829 391.988 424.912 397.352 428.413 392.145 430.457 385.876 430.457 379.129 430.457 375.966 429.999 372.911 429.161 370.018 439.5 360.704 446.002 347.211 446.002 332.199Z" fill="#E6E6E6"/><path d="M430.826 231.744C430.826 231.748 430.825 231.746 430.828 231.746 430.957 231.776 439.511 233.702 444.013 220.463 447.567 210.01 444.689 193.677 439.045 190.855 437.49 190.078 430.873 231.453 430.826 231.744Z" fill="#FFFFFF"/><path d="M372.737 273.547C372.737 274.822 371.704 275.855 370.43 275.855 369.155 275.855 368.122 274.822 368.122 273.547 368.122 272.273 369.155 271.24 370.43 271.24 371.704 271.24 372.737 272.273 372.737 273.547Z" fill="#737373"/><path d="M369.883 263.653C369.883 264.927 368.85 265.96 367.576 265.96 366.301 265.96 365.268 264.927 365.268 263.653 365.268 262.379 366.301 261.345 367.576 261.345 368.85 261.345 369.883 262.379 369.883 263.653Z" fill="#505050"/><path d="M363.43 273.547C363.43 274.822 362.397 275.855 361.122 275.855 359.848 275.855 358.815 274.822 358.815 273.547 358.815 272.273 359.848 271.24 361.122 271.24 362.397 271.24 363.43 272.273 363.43 273.547Z" fill="#737373"/><path d="M342.811 265.221C340.643 260.323 344.229 254.814 349.585 254.814L357.811 254.814C358.03 255.757 358.15 256.738 358.15 257.748 358.15 264.724 352.613 270.405 345.695 270.642 344.615 268.923 343.648 267.114 342.811 265.221L342.811 265.221Z" fill="#2F2F2F"/><path d="M361.672 284.924C370.707 286.571 379.907 282.01 385.147 274.692 386.836 272.232 390.493 275.265 388.357 277.367 386.216 279.603 383.729 281.707 381.06 283.28 375.164 286.664 367.949 287.847 361.382 285.908 360.758 285.721 361.036 284.741 361.672 284.924Z" fill="#737373"/><path d="M405.514 259.238C409.18 258.066 411.43 254.199 410.646 250.431 409.757 246.162 405.509 243.53 401.321 244.581 400.935 244.678 400.568 244.811 400.212 244.961 399.404 245.97 397.627 248.169 397.138 249.956 396.667 251.676 396.839 255.447 396.943 256.359 398.795 258.992 402.21 260.294 405.514 259.238Z" fill="#FFFFFF"/><path d="M402.962 248.706C402.554 247.081 401.535 245.774 400.213 244.961 396.804 246.397 394.854 250.136 395.782 253.834 396.016 254.769 396.421 255.614 396.943 256.358 397.453 256.361 397.97 256.309 398.487 256.179 401.786 255.351 403.79 252.005 402.962 248.706Z" fill="#2F2F2F"/><path d="M447.627 392.51 447.302 421.547C447.302 421.551 447.297 421.554 447.294 421.552 443.62 419.889 439.407 418.659 435.113 418.659 418.292 418.659 405.642 432.05 405.642 448.202L439.38 448.202C466.401 448.202 468.671 423.485 468.671 423.485L468.747 409.485 447.723 392.465C447.685 392.434 447.628 392.461 447.627 392.51Z" fill="#FFC000"/><path d="M406.119 448.203C406.279 432.528 419.067 419.252 434.771 419.252 438.874 419.252 442.846 420.109 446.579 421.799 446.759 421.881 446.969 421.866 447.136 421.76 447.303 421.653 447.405 421.469 447.407 421.271L447.734 392.103C447.738 391.78 447.478 391.514 447.154 391.511 447.153 391.511 447.15 391.511 447.148 391.511 446.827 391.511 446.565 391.769 446.562 392.091L446.245 420.365C446.245 420.37 446.241 420.373 446.237 420.371 442.595 418.849 438.742 418.079 434.772 418.079 418.421 418.079 405.106 431.882 404.947 448.203L406.119 448.203Z" fill="#FFFFFF"/><path d="M416.463 448.203C416.59 436.879 425.836 427.706 437.19 427.706 437.514 427.706 437.776 427.443 437.776 427.119 437.776 426.795 437.514 426.533 437.19 426.533 425.19 426.533 415.417 436.233 415.29 448.203L416.463 448.203Z" fill="#FFFFFF"/><path d="M427.94 448.203C428.067 443.206 432.163 439.178 437.19 439.178 437.514 439.178 437.776 438.915 437.776 438.591 437.776 438.266 437.514 438.004 437.19 438.004 431.516 438.004 426.895 442.559 426.767 448.203L427.94 448.203Z" fill="#FFFFFF"/><path d="M563.665 417.438C568.515 414.266 573.969 413.085 578.895 413.72 581.473 421.342 577.933 431.216 569.898 436.47 565.048 439.642 560.747 441.046 554.194 440.257 552.126 432.689 555.63 422.692 563.665 417.438Z" fill="#E6E6E6"/><path d="M402.525 343.07 405.741 340.566 406.101 341.029 402.885 343.533Z" fill="#FFFFFF"/><path d="M422.371 348.315 424.268 345.525 424.754 345.855 422.857 348.645Z" fill="#FFFFFF"/><path d="M412.758 346.266 414.059 340.235 414.633 340.359 413.332 346.39Z" fill="#D2D2D2"/><path d="M404.216 347.272 404.692 346.93 407.071 350.24 406.595 350.582Z" fill="#D2D2D2"/><path d="M438.204 345.172 438.371 340.886 438.957 340.908 438.789 345.195Z" fill="#FFFFFF"/><path d="M411.012 307.672 411.557 307.454 413.702 312.816 413.157 313.034Z" fill="#D2D2D2"/><path d="M410.249 336.515 410.607 330.796 411.193 330.832 410.835 336.552Z" fill="#FFFFFF"/><path d="M409.982 324.544 413.197 320.967 413.633 321.359 410.418 324.935Z" fill="#FFFFFF"/><path d="M426.377 334.187 426.855 333.846 430.429 338.851 429.952 339.192Z" fill="#D2D2D2"/><path d="M437.186 329.976 437.557 329.522 441.489 332.739 441.117 333.193Z" fill="#FFFFFF"/><path d="M437.724 322.995 442.014 322.995 442.014 323.582 437.724 323.582Z" fill="#FFFFFF"/><path d="M431.483 306.706 431.819 306.226 435.394 308.728 435.058 309.208Z" fill="#FFFFFF"/><path d="M421.489 312.681 425.42 310.179 425.736 310.674 421.804 313.176Z" fill="#FFFFFF"/><path d="M421.013 324.763 421.592 324.673 422.307 329.32 421.728 329.409Z" fill="#FFFFFF"/><path d="M424.062 321.556 429.066 320.482 429.189 321.056 424.185 322.13Z" fill="#D2D2D2"/><path d="M428.532 329.017 429.543 325.003 430.111 325.146 429.101 329.16Z" fill="#FFFFFF"/><path d="M401.917 318.557 402.032 317.982 407.394 319.054 407.279 319.629Z" fill="#FFFFFF"/><path d="M406.46 224.833 407.005 224.615 409.15 229.977 408.605 230.195Z" fill="#D2D2D2"/><path d="M405.058 241.281 408.275 237.707 408.711 238.099 405.494 241.673Z" fill="#FFFFFF"/><path d="M416.701 229.034 420.633 226.531 420.948 227.026 417.016 229.529Z" fill="#FFFFFF"/><path d="M404.438 234.022 404.553 233.447 409.915 234.52 409.8 235.095Z" fill="#FFFFFF"/><path d="M421.72 383.135 423.311 378.902 423.86 379.108 422.269 383.341Z" fill="#FFFFFF"/><path d="M413.872 378.809 414.448 378.698 415.344 383.383 414.768 383.493Z" fill="#FFFFFF"/><path d="M418.895 369.074 418.997 368.497 425.073 369.57 424.971 370.147Z" fill="#FFFFFF"/><path d="M412.207 368.554 415.423 366.051 415.783 366.513 412.567 369.017Z" fill="#D2D2D2"/><path d="M421.72 383.135 423.311 378.902 423.86 379.108 422.269 383.341Z" fill="#FFFFFF"/><path d="M413.872 378.809 414.448 378.698 415.344 383.383 414.768 383.493Z" fill="#D2D2D2"/><path d="M410.789 355.328 413.651 353.186 414.002 353.656 411.141 355.798Z" fill="#FFFFFF"/><path d="M419.608 357.18 420.095 356.854 422.804 360.891 422.317 361.218Z" fill="#FFFFFF"/><path d="M419.268 294.759 419.844 294.649 420.74 299.333 420.164 299.444Z" fill="#FFFFFF"/><path d="M398.411 300.58 398.575 296.295 399.161 296.317 398.997 300.603Z" fill="#FFFFFF"/><path d="M409.275 300.675 412.135 296.385 412.623 296.711 409.763 301Z" fill="#FFFFFF"/><path d="M419.268 294.759 419.844 294.649 420.74 299.333 420.164 299.444Z" fill="#D2D2D2"/><path d="M398.411 300.58 398.575 296.295 399.161 296.317 398.997 300.603Z" fill="#D2D2D2"/><path d="M403.089 308.244 405.739 304.409 406.221 304.743 403.571 308.577Z" fill="#FFFFFF"/><path d="M378.277 255.86 378.822 255.642 380.967 261.005 380.422 261.223Z" fill="#D2D2D2"/><path d="M385.022 264.663 388.954 262.16 389.269 262.655 385.337 265.158Z" fill="#FFFFFF"/><path d="M383.646 254.995 386.297 251.16 386.779 251.494 384.129 255.328Z" fill="#FFFFFF"/><path d="M394.98 289.065 395.004 288.48 399.363 288.661 399.339 289.247Z" fill="#FFFFFF"/><path d="M407.585 287.871 407.9 287.376 411.832 289.878 411.517 290.374Z" fill="#FFFFFF"/><path d="M409.275 300.675 412.135 296.385 412.623 296.711 409.763 301Z" fill="#D2D2D2"/><path d="M399.992 334.678 400.094 334.1 406.171 335.173 406.069 335.75Z" fill="#FFFFFF"/><path d="M422.371 348.315 424.268 345.525 424.754 345.855 422.857 348.645Z" fill="#FFFFFF"/><path d="M404.216 347.272 404.692 346.93 407.071 350.24 406.595 350.582Z" fill="#D2D2D2"/><path d="M567.018 429.709 567.12 429.132 573.197 430.205 573.095 430.782Z" fill="#FFFFFF"/><path d="M560.352 429.203 563.571 426.701 563.931 427.164 560.712 429.666Z" fill="#D2D2D2"/><path d="M567.734 417.859 568.221 417.533 570.93 421.57 570.443 421.897Z" fill="#FFFFFF"/><path d="M484.064 448.203C484.191 436.879 493.438 427.706 504.791 427.706 505.116 427.706 505.378 427.443 505.378 427.119 505.378 426.795 505.116 426.533 504.791 426.533 492.791 426.533 483.018 436.233 482.891 448.203L484.064 448.203Z" fill="#FFFFFF"/><path d="M473.085 448.203C473.213 430.826 487.384 416.727 504.791 416.727 505.115 416.727 505.378 416.464 505.378 416.14 505.378 415.817 505.115 415.553 504.791 415.553 486.737 415.553 472.04 430.178 471.912 448.203L473.085 448.203Z" fill="#FFFFFF"/><path d="M495.542 448.203C495.669 443.206 499.764 439.178 504.791 439.178 505.116 439.178 505.378 438.915 505.378 438.591 505.378 438.266 505.116 438.004 504.791 438.004 499.117 438.004 494.496 442.559 494.369 448.203L495.542 448.203Z" fill="#FFFFFF"/><path d="M504.791 416.727C484.327 416.727 467.679 400.079 467.679 379.616L467.679 375.336C467.679 375.012 467.941 374.749 468.265 374.749 468.589 374.749 468.852 375.012 468.852 375.336L468.852 379.616C468.852 399.432 484.974 415.553 504.791 415.553 505.115 415.553 505.378 415.816 505.378 416.14 505.378 416.465 505.115 416.727 504.791 416.727Z" fill="#FFFFFF"/><path d="M444.001 411.371C443.933 411.371 443.865 411.36 443.799 411.335 431.582 406.852 424.516 397.801 424.446 397.71 424.248 397.453 424.297 397.085 424.553 396.887 424.809 396.69 425.177 396.737 425.376 396.994 425.444 397.082 432.318 405.872 444.203 410.234 444.508 410.346 444.664 410.682 444.552 410.987 444.464 411.224 444.24 411.371 444.001 411.371Z" fill="#FFFFFF"/></g></svg>