<svg width="96" height="96" xmlns="http://www.w3.org/2000/svg" xmlns:xlink="http://www.w3.org/1999/xlink" overflow="hidden"><defs><clipPath id="clip0"><rect x="0" y="0" width="96" height="96"/></clipPath></defs><g clip-path="url(#clip0)"><path d="M89.317 53.978 87.687 53.252 84 32.8C83.752 27.008 62.389 24.9 48 24.9 33.611 24.9 12.247 27.007 12 32.8L8.355 53.225 6.63 54C3.558 55.587 2 57.382 2 59.338 2 66.913 25.7 71 48 71 70.3 71 94 66.913 94 59.338 94 57.382 92.442 55.587 89.317 53.978ZM81.393 31.944C81.3974 31.9463 81.3992 31.9517 81.3969 31.9561 81.396 31.9578 81.3947 31.9591 81.393 31.96 78.208 33.8 66.9 36.9 48 36.9 29.1 36.9 17.792 33.8 14.609 31.96 14.6046 31.9577 14.6028 31.9523 14.6051 31.9479 14.606 31.9462 14.6073 31.9449 14.609 31.944 17.418 29.624 29.83 26.9 48 26.9 66.17 26.9 78.582 29.624 81.393 31.944ZM48 69C22.07 69 4 63.908 4 59.338 4 58.224 5.26 56.96 7.5 55.8L7.929 55.606 7.519 57.906C7.41215 58.4411 7.74034 58.9669 8.268 59.106 8.80596 59.231 9.34337 58.8962 9.46833 58.3582 9.47235 58.3409 9.47591 58.3235 9.479 58.306L13.856 33.8C18.267 36.179 30.149 38.9 48 38.9 65.872 38.9 77.761 36.174 82.159 33.787L86.582 58.387C86.6628 58.9333 87.1711 59.3108 87.7175 59.23 88.2638 59.1493 88.6413 58.6409 88.5605 58.0946 88.5574 58.0733 88.5535 58.0521 88.549 58.031L88.116 55.631 88.453 55.78C90.74 56.96 92 58.224 92 59.338 92 63.908 73.93 69 48 69Z"/><path d="M65 49.858C64.9943 48.0402 63.9826 46.3749 62.372 45.532 61.6807 45.1707 60.91 44.9878 60.13 45L60.121 45C57.7026 45.0075 55.6552 46.7864 55.31 49.18L40.69 49.18C40.3448 46.7864 38.2974 45.0075 35.879 45L35.87 45C35.091 44.9883 34.3214 45.1712 33.631 45.532 31.2399 46.7756 30.3098 49.7221 31.5534 52.1132 31.7179 52.4296 31.9167 52.7269 32.146 53 31.1421 54.1899 30.7661 55.7873 31.134 57.3 31.2369 57.7463 31.4083 58.1741 31.642 58.568 32.9828 60.8971 35.9578 61.6982 38.2868 60.3575 39.5873 59.6088 40.4696 58.302 40.678 56.816L55.321 56.816C55.6977 59.4763 58.1597 61.3276 60.82 60.9509 61.8681 60.8025 62.8392 60.3162 63.586 59.566 65.3643 57.7779 65.4807 54.9271 63.854 53 64.5927 52.1195 64.9983 51.0073 65 49.858ZM62.17 58.158C61.0576 59.2825 59.2442 59.2922 58.1197 58.1798 57.5763 57.6421 57.2703 56.9095 57.27 56.145 57.27 56.071 57.27 55.997 57.28 55.927L57.401 54.818 38.6 54.818 38.721 55.927C38.729 55.997 38.729 56.071 38.731 56.127 38.7408 57.7087 37.4666 58.9989 35.8849 59.0088 35.1138 59.0135 34.3733 58.7072 33.831 58.159 32.7165 57.0374 32.7222 55.2246 33.8439 54.1101 33.8446 54.1094 33.8453 54.1087 33.846 54.108 33.9538 53.9993 34.0698 53.899 34.193 53.808L35.262 53.008C35.2664 53.0057 35.2682 53.0003 35.2659 52.9959 35.265 52.9942 35.2637 52.9929 35.262 52.992L34.193 52.192C34.0695 52.101 33.9532 52.0008 33.845 51.892 32.7266 50.7711 32.7287 48.9558 33.8495 47.8375 34.3859 47.3023 35.1123 47.0012 35.87 47L35.875 47C37.4588 47.005 38.7397 48.2912 38.738 49.875 38.738 49.949 38.738 50.027 38.728 50.103L38.645 51.18 57.355 51.18 57.272 50.1C57.266 50.024 57.262 49.946 57.262 49.87 57.2625 48.2879 58.5429 47.0044 60.125 47L60.13 47C61.7134 46.9992 62.9977 48.2821 62.9985 49.8655 62.9989 50.6292 62.6945 51.3615 62.153 51.9 62.0452 52.0087 61.9292 52.109 61.806 52.2L60.737 53C60.7326 53.0023 60.7308 53.0077 60.7331 53.0121 60.734 53.0138 60.7353 53.0151 60.737 53.016L61.806 53.816C61.9891 53.9504 62.1568 54.1047 62.306 54.276 62.6472 54.6665 62.8739 55.1438 62.961 55.655 63.1173 56.5675 62.8213 57.4991 62.167 58.154Z"/></g></svg>