<svg width="96" height="96" xmlns="http://www.w3.org/2000/svg" xmlns:xlink="http://www.w3.org/1999/xlink" overflow="hidden"><defs><clipPath id="clip0"><rect x="0" y="0" width="96" height="96"/></clipPath></defs><g clip-path="url(#clip0)"><path d="M72.092 46.165 78.302 51.986 84.338 46.886 48.094 12.722 11.5 47.24 17.536 52.34 24.093 46.188 24.093 82 12 82 12 84 84 84 84 82 72.092 82ZM17.465 49.665 14.501 47.165 48.094 15.47 81.335 46.807 78.372 49.307 48.094 20.927ZM42.094 82 42.094 66.678C42.094 63.53 44.646 60.978 47.794 60.978L48.394 60.978C51.542 60.978 54.094 63.53 54.094 66.678L54.094 82ZM56.094 82 56.094 66.678C56.094 62.4254 52.6466 58.978 48.394 58.978L47.794 58.978C43.5414 58.978 40.094 62.4254 40.094 66.678L40.094 82 26.094 82 26.094 44.311 48.094 23.669 70.094 44.29 70.094 82Z"/><path d="M56.472 46.882C56.8694 46.4746 57.0919 45.9281 57.092 45.359 57.097 44.1852 56.1527 43.228 54.979 43.217L54.974 43.217C54.4116 43.2162 53.8728 43.4435 53.481 43.847 53.0852 44.253 52.8644 44.798 52.866 45.365 52.865 45.4224 52.867 45.4798 52.872 45.537L52.894 45.837 43.3 45.837 43.322 45.537C43.322 45.476 43.327 45.42 43.327 45.365 43.3314 44.7975 43.1102 44.2514 42.712 43.847 42.3207 43.4434 41.7822 43.216 41.22 43.217L41.21 43.217C40.6489 43.2165 40.1112 43.4417 39.718 43.842 39.3183 44.2454 39.0953 44.7911 39.098 45.359 39.0981 45.9281 39.3206 46.4746 39.718 46.882 39.7966 46.9622 39.8808 47.0367 39.97 47.105L40.27 47.327 40.27 47.327 39.97 47.549C39.8796 47.6139 39.7952 47.6868 39.718 47.767 38.8878 48.6062 38.8829 49.9558 39.707 50.801 40.0975 51.2029 40.6337 51.4301 41.194 51.431L41.194 51.431C41.7537 51.4303 42.2897 51.2052 42.682 50.806 43.0797 50.3968 43.3021 49.8486 43.302 49.278 43.3029 49.2239 43.3009 49.1699 43.296 49.116L43.263 48.81 52.9 48.81 52.867 49.116C52.862 49.1719 52.86 49.2279 52.861 49.284 52.8575 49.8537 53.0809 50.4014 53.482 50.806 53.8738 51.2053 54.4096 51.4305 54.969 51.431L54.974 51.431C55.5347 51.4319 56.0716 51.2044 56.461 50.801 56.855 50.3933 57.0788 49.8509 57.087 49.284 57.0895 48.7176 56.8664 48.1736 56.467 47.772 56.3883 47.6915 56.3037 47.617 56.214 47.549L55.914 47.327 55.914 47.327 56.214 47.105C56.307 47.032 56.4 46.96 56.472 46.882Z"/></g></svg>