<svg width="96" height="96" xmlns="http://www.w3.org/2000/svg" xmlns:xlink="http://www.w3.org/1999/xlink" overflow="hidden"><defs><clipPath id="clip0"><rect x="0" y="0" width="96" height="96"/></clipPath></defs><g clip-path="url(#clip0)"><path d="M40.239 65.055C28.1 50.667 6.577 51.888 5 52L5 54 5.076 54C5.291 53.984 27.019 52.519 38.722 66.361 39.261 65.961 39.822 65.591 40.389 65.227 40.34 65.169 40.286 65.106 40.239 65.055Z"/><path d="M44.323 53.12C50.6149 53.3083 56.7001 55.4093 61.768 59.143 62.178 59.133 62.587 59.12 63 59.12 63.283 59.12 64.1 59.136 65.05 59.169L64.05 58.34C58.4455 53.8564 51.5324 51.3218 44.358 51.12 39.5827 51.1051 34.8624 52.1384 30.53 54.147 30.364 54.226 30.03 54.4 29.62 54.62 30.369 54.972 31.115 55.347 31.855 55.753 35.7829 54.0186 40.0292 53.1219 44.323 53.12Z"/><path d="M84.686 66.966C84.454 66.828 84.2253 66.6947 84 66.566L84 55.915C84.3374 55.8639 84.6714 55.7921 85 55.7 88.3886 54.5271 90.6183 51.2839 90.5 47.7 90.5 42.7 84.62 31.52 83 31.52 81.38 31.52 75.5 42.74 75.5 47.7 75.3817 51.2839 77.6114 54.5271 81 55.7 81.3286 55.7921 81.6626 55.8639 82 55.915L82 65.471C81.675 65.301 81.461 65.193 81.432 65.178 79.1466 64.0984 76.7708 63.2217 74.332 62.558 72.2495 62.0204 70.1344 61.6179 68 61.353L68 41.932C68.573 41.861 69 41.76 69 41.76 73.64 40.76 77.14 36.06 77.14 29.51 77.14 22.05 69.43 6 67 6 64.57 6 56.86 22.05 56.86 29.51 56.86 36.06 60.36 40.72 65 41.76 65 41.76 65.427 41.86 66 41.932L66 61.208C64.627 61.145 63.276 61.12 63 61.12 53.561 61.12 44.669 63.984 38.624 68.962 37.703 69.652 29.147 75.74 12.732 77.02L5 77 5 79 12.808 79.017C29.865 77.69 38.854 71.289 39.876 70.522 45.588 65.822 54.017 63.122 63 63.122 63.346 63.122 65.645 63.167 67.264 63.287 69.4762 63.5287 71.6677 63.9321 73.821 64.494 76.1322 65.1228 78.3838 65.9529 80.55 66.975 80.565 66.983 82.107 67.761 83.664 68.687 86.0021 70.2929 88.2301 72.0535 90.333 73.957L91 74.557 91 71.877C89.0154 70.0912 86.9053 68.45 84.686 66.966ZM66.032 21 66.032 29.118 62.669 25.755 61.255 27.169 66.032 31.946 66.032 39.918C65.698 39.868 65.455 39.818 65.437 39.808 61.503 38.927 58.86 34.788 58.86 29.508 58.86 23.491 64.501 11.262 67 8.386 69.5 11.262 75.14 23.486 75.14 29.508 75.14 34.82 72.503 38.957 68.54 39.808 68.54 39.808 68.331 39.857 68.034 39.903L68.034 36.003 73.453 30.584 72.039 29.17 68.034 33.175 68.034 21ZM83 54C82.5295 53.9863 82.0623 53.9172 81.608 53.794 79.0666 52.9008 77.4019 50.458 77.5 47.766L77.5 47.7C77.5 44.283 81.081 36.8 83 34.157 84.883 36.741 88.5 44.057 88.5 47.7L88.5 47.766C88.5991 50.4578 86.9345 52.9006 84.393 53.793 83.9385 53.917 83.4709 53.9865 83 54Z"/><path d="M30.921 31.554C31.39 32.2952 31.7532 33.0983 32 33.94 31.993 34.537 31.5033 35.0152 30.9064 35.0082 30.3317 35.0015 29.8628 34.5462 29.839 33.972 30.0822 33.1184 30.4465 32.3041 30.921 31.554ZM30.648 28.185C29.894 29.322 27.84 32.552 27.84 33.94 27.84 35.641 29.219 37.02 30.92 37.02 32.621 37.02 34 35.641 34 33.94 34 32.24 30.92 27.78 30.92 27.78 30.92 27.78 30.817 27.93 30.648 28.185Z"/><path d="M41.56 32.18C41.56 33.395 40.575 34.38 39.36 34.38 38.145 34.38 37.16 33.395 37.16 32.18 37.16 30.97 39.36 27.78 39.36 27.78 39.36 27.78 41.56 31 41.56 32.18Z"/><path d="M24.6 32.18C24.6828 33.3923 23.7673 34.4422 22.555 34.525 21.3427 34.6078 20.2928 33.6923 20.21 32.48 20.2028 32.3801 20.2028 32.2799 20.21 32.18 20.21 30.97 22.4 27.78 22.4 27.78 22.4 27.78 24.6 31 24.6 32.18Z"/><path d="M20.77 26C20.4482 25.9862 20.1279 25.9478 19.812 25.885 18.6379 25.6596 17.5547 25.0978 16.694 24.268 14.1897 21.8628 14.1093 17.8829 16.5145 15.3787 17.7323 14.1107 19.4253 13.4105 21.183 13.448 21.8628 9.42923 25.6717 6.72245 29.6905 7.40224 31.6638 7.73603 33.4169 8.85693 34.548 10.508 34.9356 10.4333 35.3293 10.3955 35.724 10.395L35.731 10.395C36.7245 10.3796 37.7064 10.6105 38.589 11.067 40.3632 11.989 41.5985 13.6939 41.922 15.667 44.6819 15.7966 46.85 18.0771 46.84 20.84L46.84 20.84C46.8317 23.5892 44.6783 25.8536 41.933 26ZM21.042 15.446C18.6766 15.4478 16.7604 17.3668 16.7622 19.7322 16.763 20.8215 17.1788 21.8695 17.925 22.663 18.4346 23.2113 19.0822 23.6127 19.8 23.825 20.1324 23.9241 20.4755 23.9828 20.822 24L41.88 24C43.5453 23.8889 44.8395 22.506 44.84 20.837L44.84 20.837C44.848 20.3264 44.7288 19.8219 44.493 19.369 43.9459 18.3281 42.8689 17.6742 41.693 17.669 41.5169 17.6722 41.3413 17.6866 41.167 17.712L40.013 17.905C40.0071 17.9066 40.0011 17.9032 39.9995 17.8973 39.9988 17.8949 39.999 17.8923 40 17.89L40 16.72C40.0166 15.2089 39.2387 13.8 37.951 13.009 37.283 12.6005 36.513 12.3893 35.73 12.4L35.73 12.4C35.2761 12.4002 34.8251 12.4728 34.394 12.615L33.604 12.876C33.5994 12.8768 33.5947 12.8749 33.592 12.871L33.199 12.139C31.7937 9.52106 28.5322 8.53805 25.9142 9.94339 24.2041 10.8614 23.121 12.6294 23.08 14.57L23.057 15.753C23.0571 15.7585 23.0527 15.7631 23.0472 15.7632 23.0465 15.7632 23.0457 15.7631 23.045 15.763L21.884 15.53C21.6067 15.4746 21.3247 15.4465 21.042 15.446Z"/></g></svg>